<svg xmlns="http://www.w3.org/2000/svg" xmlns:xlink="http://www.w3.org/1999/xlink" version="1.1" id="Layer_1" x="0px" y="0px" viewBox="0 0 414 736" xml:space="preserve" enable-background="new 0 0 414 736">
  <g class="p_leaf">
    <path d="M361 268.2c0.4-3.8 1.3-7.2 2.2-10.5 2.1-7.6 3.6-13.1-2.5-18l-1.3-1 1-1.3c6-7.3 8.3-14 6.3-18.4 -1.5-3.1-5-4.8-10-4.8 -2.4 0-5.1 0.4-8 1.2l-2.8 0.8 0.8-2.8c1.5-5.4 8.5-12.5 16-20 7.5-7.5 16.8-16.8 14.7-20.2 -1.2-1.5-4.6-3.2-13.5-3.2 -3.4 0-7.4 0.3-11.8 0.7l-2.2 0.2 0.5-2.2c2.5-11.6-4.8-13.9-13.2-16.4 -6.7-2.1-14.3-4.4-15.4-12.5l-0.3-2.3 2.2 0.5c0.7 0.2 1.5 0.2 2.2 0.2 8.3 0 13.3-11 14.6-18.4l0.2-1.3 1.4 0c9.5 0 15.5-1.1 19-3.5 4-2.7 9.9-10.7 10.1-16.2 0-1.6-0.4-2.8-1.5-3.6l-2.4-1.8 2.8-1c2.7-1 5.3-1.5 8-1.5 5 0 10 1.7 15.6 3.6 0.8 0.3 1.6 0.6 2.4 0.9 4.5 1.7 10.1 3.7 15 4.4 0.7 0.1 1.5 0.2 2.2 0.2 4.1 0 7.5-1.6 8.8-4 1.4-2.6 0.1-5.7-1.3-7.7l-1-1.6 1.7-0.8c1.4-0.6 2.9-1 4.7-1 8.1 0 19.9 7.3 26 20.7 1.4 3.1 4.4 4.3 6.7 4.3 1.4 0 2.7-0.4 3.4-1.1l1.3-1.2 1.1 1.5c4.6 6.3 5.6 14 2.9 21.8 12.1-9.6 23.1-17.6 30.2-21.8 2.1-1.2 3.6-1.8 4.9-1.8 2 0 2.9 1.4 3.4 2.1 0.1 0.2 0.3 0.4 0.4 0.5 0.1 0.1 0.4 0.4 0.7 0.6 1.1 0.8 2.8 2.1 2.6 4.1 -0.2 1.9-2.2 3.1-3.6 3.8 -11.8 5.7-23.8 12.4-34.2 19.3 4.6 0.2 8.8 1.3 12.5 3.3 10.7 5.7 14 11.4 17.4 17.5 1.7 3 3.5 6.1 6.3 9.4l2.3 2.8 -3.6-0.1c-0.3 0-0.7-0.1-1.5-0.2 -1.4-0.2-3.6-0.6-5.6-0.6 -2.1 0-2.8 0.5-2.9 0.6 -1.4 1.4-0.2 3.4 3.1 7.2 1 1.2 1.9 2.3 2.7 3.4 5.2 8.1 11.8 27.4 13.7 39.7l0.5 3.2 -2.8-1.5c-5.3-2.7-10-4.1-13.8-4.1 -1.5 0-3 0.2-4.3 0.6 -4.2 2.9-6.1 9.5-5.6 19.7l0 0.9 -0.7 0.5c-11.1 8.5-13.7 12.8-9.8 25.1l0.9 2.8 -2.8-0.7c-7.5-1.9-11.9-9.3-15.7-15.9 -3.1-5.3-6-10.3-9.6-10.3 -1.3 0-2.9 0.6-4.6 1.9l-1.7 1.3 -0.8-2c-0.2-0.6-0.5-1.2-0.7-1.8 -1.4-3.5-2.7-6.8-2.8-10 -0.3-6.8-1.7-8.1-2-8.1 -0.8 0-3.1 1.8-6.5 8.6 -2 4.1-3.6 8.1-5.1 12 -2.1 5.2-4.2 10.6-7.4 16.2l-1.6 2.8 -1.3-2.9c-2.5-5.4-6.7-11.9-12.3-11.9 -3.8 0-7.9 3-12.1 8.6l-0.6 0.8 -1-0.1c-1.2-0.2-2.3-0.2-3.4-0.2 -8.1 0-14.2 4.4-25.1 13.9l-3.1 2.7L361 268.2z" style="clip-rule:evenodd;fill-rule:evenodd;fill:#F4CD2A"/>
    <path d="M426.2 86.5c7.7 0 18.8 7.2 24.5 19.7 1.7 3.7 5.1 5.2 8.2 5.2 1.8 0 3.5-0.5 4.5-1.5 5.3 7.2 5.7 16.7-0.2 26.5 12-9.8 26.2-20.6 35.5-26.1 2-1.2 3.2-1.6 4.1-1.6 1.6 0 1.9 1.4 2.6 2.1 1.2 1.2 5.6 3.2 0.1 5.8 -12.2 5.9-26.4 13.8-39.1 22.6 1.4-0.1 2.7-0.2 4-0.2 5 0 9.4 1 13.3 3.1 15.4 8.2 14.6 16.2 23.2 26.5 -0.7 0-4.1-0.9-7.2-0.9 -1.7 0-3.3 0.3-4.1 1.1 -3.6 3.7 3 8.7 5.5 12.6 4.9 7.7 11.6 26.7 13.5 39.1 -5.6-2.9-10.4-4.3-14.6-4.3 -1.8 0-3.5 0.3-5 0.8 -4.9 3.2-7.1 10.2-6.5 21.2 -11 8.4-14.7 13.4-10.3 26.9C465.1 262 462 239 452.5 239c-1.6 0-3.4 0.7-5.5 2.2 -1.6-4.1-3.3-7.8-3.4-11.2 -0.3-6.8-1.7-9.7-3.6-9.7 -2.2 0-5.1 3.7-8 9.5 -4.7 9.5-6.9 18.4-12.4 28.1 -3.8-8.3-8.6-12.8-13.8-12.8 -4.2 0-8.7 3-13.4 9.3 -1.2-0.2-2.4-0.3-3.6-0.3 -8.8 0-15.5 5.1-26.2 14.3 1.3-12.4 9-22-0.9-30 12.6-15.3 7.7-25.9-5-25.9 -2.5 0-5.4 0.4-8.4 1.3 3.1-11.3 35.7-33.7 30.4-41.6 -2.1-2.6-7-3.9-14.8-3.9 -3.4 0-7.5 0.3-12 0.8 5-23.4-26.4-13.4-28.6-29.5 0.9 0.2 1.7 0.3 2.5 0.3 9.7 0 14.9-12.4 16.2-19.8 9.5 0 16-1.1 19.9-3.7 5.9-4 15-17.7 8.7-22.5 2.6-0.9 5-1.4 7.5-1.4 4.6 0 9.2 1.5 15.1 3.6 4.9 1.8 11.7 4.5 17.8 5.4 0.8 0.1 1.6 0.2 2.5 0.2 7.9 0 14.7-5.4 8.9-14.3C423.3 86.8 424.7 86.5 426.2 86.5M426.2 83.2c-2 0-3.8 0.4-5.4 1.1l-3.4 1.6 2.1 3.1c1.1 1.7 2.3 4.2 1.2 6.1 -1 1.9-4 3.2-7.4 3.2 -0.7 0-1.3 0-2-0.1 -4.8-0.7-10.3-2.7-14.7-4.3 -0.8-0.3-1.7-0.6-2.4-0.9 -5.7-2-10.9-3.7-16.2-3.7 -2.9 0-5.7 0.5-8.6 1.5l-5.6 2 4.8 3.6c0.3 0.2 0.9 0.7 0.9 2.3 -0.1 3.8-4.5 11.6-9.4 14.9 -3.1 2.1-9 3.1-18.1 3.2l-2.7 0 -0.5 2.7c-1.2 6.9-5.6 17.1-13 17.1 -0.6 0-1.2-0.1-1.8-0.2l-4.5-0.9 0.6 4.5c1.2 9.2 9.7 11.8 16.5 13.9 9.4 2.9 14.1 4.8 12.1 14.5l-0.9 4.4 4.5-0.5c4.4-0.5 8.4-0.7 11.7-0.7 8.5 0 11.3 1.6 12.1 2.5 0 0.3 0 1.8-2.9 5.6 -2.8 3.7-7.3 8.2-11.6 12.5 -7.6 7.7-14.8 14.9-16.4 20.7l-1.5 5.6 5.5-1.6c2.7-0.8 5.3-1.2 7.5-1.2 2.5 0 7 0.5 8.5 3.9 1.8 3.7-0.5 10-6 16.7l-2.1 2.5 2.6 2.1c5.1 4.1 4.2 8.2 2 16.3 -0.9 3.2-1.9 6.9-2.3 10.8l-0.8 8.2 6.2-5.4c10.6-9.2 16.5-13.5 24-13.5 1 0 2 0.1 3.1 0.2l1.9 0.3 1.2-1.6c3.8-5.2 7.5-7.9 10.7-7.9 3.7 0 7.6 3.9 10.8 10.9l2.7 5.8 3.1-5.5c3.2-5.7 5.4-11.2 7.5-16.4 1.5-3.9 3.1-7.9 5.1-11.9 2-4.1 3.6-6.2 4.6-7.1 0.3 0.9 0.7 2.7 0.9 6 0.2 3.5 1.5 6.9 3 10.5 0.2 0.6 0.5 1.2 0.7 1.8l1.6 4 3.4-2.6c1.4-1.1 2.6-1.6 3.6-1.6 2.7 0 5.5 4.8 8.2 9.5 4 6.8 8.5 14.6 16.8 16.6l5.7 1.4 -1.8-5.6c-3.7-11.4-1.4-15.2 9.2-23.3l1.4-1 -0.1-1.7c-0.5-9.4 1.1-15.5 4.7-18.1 1.1-0.3 2.3-0.5 3.5-0.5 3.6 0 8 1.3 13.1 4l5.7 2.9 -1-6.3c-1.9-12.5-8.7-32.1-13.9-40.3 -0.8-1.2-1.8-2.4-2.8-3.6 -1.1-1.3-3.3-4-3.3-4.9l0 0c0 0 0 0 0 0 0.2-0.1 0.7-0.2 1.8-0.2 1.8 0 4 0.4 5.3 0.6 0.9 0.2 1.3 0.2 1.8 0.2l7.2 0.2 -4.6-5.5c-2.7-3.2-4.4-6.3-6.1-9.2 -3.6-6.3-7-12.2-18.1-18.1 -2.6-1.4-5.5-2.4-8.6-3 9.5-6 19.9-11.8 30.2-16.7 1-0.5 4.2-2 4.5-5.1 0.3-2.8-2-4.6-3.2-5.5 -0.2-0.1-0.4-0.3-0.5-0.4 0-0.1-0.1-0.2-0.2-0.3 -0.6-0.9-1.9-2.9-4.8-2.9 -1.6 0-3.4 0.6-5.8 2 -6.4 3.8-16 10.6-26.6 19 1.1-6.6-0.4-13-4.4-18.5l-2.2-3 -2.7 2.5c-0.4 0.3-1.2 0.7-2.3 0.7 -0.9 0-3.8-0.2-5.2-3.3 -2.9-6.3-7.2-11.8-12.5-15.8C436.2 85.3 430.8 83.2 426.2 83.2L426.2 83.2z" fill="#FFF"/>
  </g>

  <g class="p_leaf">
    <path d="M341.5 340.1c-18.2 64.3 31.1 46.9 32.8 42.4 -0.2 42 62.5 25 47.1-8.6 20.6 2.6 29.7-17.2 15.9-46.3 39.2 0.7 16.5-36.1 0-51.6 -4.3-4-0.2-2.4 4.4-3.8 8.7-2.5 12.1-7.7 11.1-13.9 -1.7-10.8-16.9-24.5-40.4-32 -8.1-2.6-4.4-2.9 1.6-6.9 7-4.7 7.5-8.4 6-11.9 -3.4-8-23.4-14.7-31.7-14.7 -9.4 0-10-7.4-7.5-10.1 10.1-10.8-15.9-20.7-21.7-23.4 -13.1-6-25.9-11.2-29.2-9.9 -17.9 7.2-23.6 52.1-9 52.2 6.2 0.1 12.8-5.6 2.7 10.8 -8.7 14.1-26.2 33.6-14.8 46.4 4.1 4.6 11.4 5.2 17.3 1.8 6.9-3.9 7.7-2 5.6 4.6 -6.5 20.7-26.7 44.8-16.4 66.4 4.2 8.8 13.1 10 19.8 6.5C338.6 336.4 343.4 333.5 341.5 340.1L341.5 340.1z" style="clip-rule:evenodd;fill-rule:evenodd;fill:#29F4A2"/>
    <g>
      <path d="M349.6 197.2c-1.3 7.7-9.1 21.2-20.4 32.1 11.5-16.8 15.1-26.9 17.6-34.7C349 187.9 349.7 196.5 349.6 197.2L349.6 197.2z" style="clip-rule:evenodd;fill-rule:evenodd;fill:#FFF"/>
      <path d="M366.5 242.9c-1.8 8.4-9.4 26.8-24.2 50.5 13.7-28.9 19.5-45.6 21.6-53.8C366.4 229.8 366.5 242.8 366.5 242.9L366.5 242.9z" style="clip-rule:evenodd;fill-rule:evenodd;fill:#FFF"/>
      <path d="M383.7 299.6c12.5 10.3 31 32.7 37 44.8 -3.6-5.6-17.9-22.4-35-38.2C383.4 304.1 381.5 297.8 383.7 299.6L383.7 299.6z" style="clip-rule:evenodd;fill-rule:evenodd;fill:#FFF"/>
      <path d="M351.3 194.8c12.5 4.3 23.6 5.7 28.9 5.9 -3.8-1.7-16.5-4.8-29.6-10.1C345.2 188.5 350.1 194.4 351.3 194.8L351.3 194.8z" style="clip-rule:evenodd;fill-rule:evenodd;fill:#FFF"/>
      <path d="M371.1 257.2c23.1 10.8 43.2 25.9 49.4 36 -8.2-8-19.3-17.4-46.6-30.6C372.7 261.9 367.6 255.5 371.1 257.2L371.1 257.2z" style="clip-rule:evenodd;fill-rule:evenodd;fill:#FFF"/>
      <path d="M360.9 223c20.1 4.4 45.8 17.3 55.1 22.1 -13-3.9-29.2-11.5-53.5-17.6C361.3 227.1 354.7 221.6 360.9 223L360.9 223z" style="clip-rule:evenodd;fill-rule:evenodd;fill:#FFF"/>
      <path d="M381 293.6c-3 11.4-13 30.7-24.9 50.9 14.9-34 21-49.6 22.5-54.5C381.5 280.3 381.8 290.5 381 293.6L381 293.6z" style="clip-rule:evenodd;fill-rule:evenodd;fill:#FFF"/>
      <path d="M341.6 166c33.4 81.4 50.6 152.1 58.6 217.6 -13.4-73.5-33.1-140.4-63-211.8 -5-11.9-14.6-30.2-23.9-39.2 -2.4-2.3-4.1-3.2-3.4-5.5 0.7-2.3 2.4-4.8 4.4-5.8 1.7-0.8 3.7-0.5 5.4 2.1C327.8 135.4 336.4 153.4 341.6 166L341.6 166z" style="clip-rule:evenodd;fill-rule:evenodd;fill:#FFF"/>
    </g>
  </g>

  <g class="p_leaf">
    <path d="M523.9 474.3c9.6-5.4 26.3-31.3 12.8-42.4 8-12.5 2.1-31.6-5.5-33.5 -7.3-28.8-18.1-15.3-20.8-19.5 -2.9-4.5-7.7-8.1-12.9-10.2 -4.2-1.7-5.4 1.5-13.7 1.8 -6.1 0.3-16-10.6-21.3-8.6 -3.1 1.2-7.2 7.5-15.4 7.9 -9 0.4-14-4.3-19.5-2.9 -10 2.7-8.9 10.3-17.5 14.5 -7.5 3.6-10.3 0.2-19.8 3.3 -5.9 2-13.5 19.8-32.8 23.7 17.2 17.1 7.8 25.8 10.9 34 1.5 3.9 7.9 6.6 9.7 11.9 1.9 5.4-1.9 10.4 1.2 17.6 3.6 8.2 9.9 5.7 13.5 10.7 4.7 6.4-2.7 16.4 12.5 24.6 8.3 4.4 12.6 3.1 15.1 14 1.3 5.7 6.9 7.7 12.8 8.4 7.9 0.9 17.6-1.9 22.3-2.3 3.7 10.4 24.7 4.8 39.9-13.4C507.1 520.6 525.7 492 523.9 474.3L523.9 474.3z" style="clip-rule:evenodd;fill-rule:evenodd;fill:#F4CD2A"/>
    <g>
      <path d="M414.2 425.3c-3.9-7.2-10.3-17-15.5-23.3 5.3 2.5 15.6 14.8 19.8 24.5C420.5 430.9 414.8 426.4 414.2 425.3L414.2 425.3z" style="clip-rule:evenodd;fill-rule:evenodd;fill:#29F4A2"/>
      <path d="M420.6 430.6c-8.7 6.3-27.5 9.7-33 9.5 7.1-2.1 21.1-6.8 27-11C418.5 426.4 423.5 428.6 420.6 430.6L420.6 430.6z" style="clip-rule:evenodd;fill-rule:evenodd;fill:#29F4A2"/>
      <path d="M474.4 453.2c-19.4 10.7-42.7 15.9-65.3 14.1 24.7-2.8 44.7-9.5 61.4-16.7C472.2 449.9 479.8 450.2 474.4 453.2L474.4 453.2z" style="clip-rule:evenodd;fill-rule:evenodd;fill:#29F4A2"/>
      <path d="M428.6 498.6c33.3 1.2 62.2-8.4 83.3-26.4 2.2-1.8-2.4-3.8-2.6-3.6C492.9 483 464.4 495.5 428.6 498.6L428.6 498.6z" style="clip-rule:evenodd;fill-rule:evenodd;fill:#29F4A2"/>
      <path d="M467.9 449.3c-8.1-21.2-19-40.4-29.6-57.3 9.7 9.9 26.5 32.5 34.3 58.4C473.2 452.7 468.6 451.1 467.9 449.3L467.9 449.3z" style="clip-rule:evenodd;fill-rule:evenodd;fill:#29F4A2"/>
      <path d="M552.5 500.5c-8.8-6.8-19.5-14.6-24.1-17.3C504 468.4 477 454.5 454.6 445c-37.1-15.7-52.2-21.4-82.9-32.9 26.5 7.2 54.7 14.7 84.1 27.1 18.3 7.7 48.7 20.7 74.5 35.6 8.4 4.8 23.3 12.6 30.2 17.8C561.3 493.1 561.1 507.3 552.5 500.5L552.5 500.5z" style="clip-rule:evenodd;fill-rule:evenodd;fill:#29F4A2"/>
      <path d="M517.6 468.9c-6.3-26.5-19.8-60.3-35-75.6 12.6 19.7 24.9 51.4 29.8 73.4C513.6 472.1 519.1 475.3 517.6 468.9L517.6 468.9z" style="clip-rule:evenodd;fill-rule:evenodd;fill:#29F4A2"/>
    </g>
  </g>

  <g class="p_leaf">
    <path d="M579.7 624.8c-1.4 0-12.5-2.9-15.7 0.3 -5 5.1 4.2 12.2 7.7 17.6 6.9 10.8 16.2 37.3 18.8 54.6 -11.1-5.8-20.3-7.4-27.4-4.9 -6.9 4.4-9.9 14.3-9 29.7 -15.3 11.7-20.6 18.7-14.4 37.5 -21.6-5.3-23.8-48.5-43.8-33.5 -2.2-5.7-4.6-10.9-4.8-15.7 -0.9-20.4-8.7-15.6-16.2-0.3 -6.6 13.3-9.7 25.8-17.4 39.3 -9.7-21-23.4-24.7-37.9-5 -15-2.1-24.7 5-41.6 19.6 1.8-17.3 12.5-30.8-1.3-42 21.1-25.6 7.2-41.8-18.8-34.4 4.3-15.9 49.9-47.1 42.5-58.1 -4.1-5.2-16.6-6.7-37.5-4.4 7-32.7-36.9-18.7-39.9-41.3 15.9 3.3 24.1-16 26.1-27.3 13.2-0.1 22.4-1.6 27.8-5.2 8.3-5.6 20.9-24.7 12.1-31.4 10.4-3.8 18.9-1.4 31.5 3.1 6.9 2.5 16.4 6.3 24.8 7.5 12.3 1.8 24.8-6.1 15.9-19.7 10-4.7 30.4 5.5 39.8 26.4 3.7 8.2 13.8 8.8 17.7 5.2 8.3 11.4 8.1 26.7-4 42.4 12.8-2.9 23.5-2 32.4 2.7C568.7 599.2 567.7 610.4 579.7 624.8L579.7 624.8z" style="clip-rule:evenodd;fill-rule:evenodd;fill:#FFF"/>
    <g>
      <path d="M512.5 586.9c-6.9-7.6-13.6-17.2-19.6-25.1 4.3 3.8 8.5 5.2 20.4 20.5C515.6 585.4 515.6 590.3 512.5 586.9L512.5 586.9z" style="clip-rule:evenodd;fill-rule:evenodd;fill:#F4CD2A"/>
      <path d="M467.6 582.9c-13.4-9.5-32-25.4-38.7-31.7 20.2 12.3 23.9 15.4 42.4 31.6C472.6 583.9 467.6 582.9 467.6 582.9L467.6 582.9z" style="clip-rule:evenodd;fill-rule:evenodd;fill:#F4CD2A"/>
      <path d="M388.1 668.3c17.7-10.7 49-23.9 64.6-24.3 1.9-0.1 1.2 2.6-0.9 3.1C425.5 653.3 400.9 662.6 388.1 668.3L388.1 668.3z" style="clip-rule:evenodd;fill-rule:evenodd;fill:#F4CD2A"/>
      <path d="M432.6 582.1c-13.8 9.1-31.1 19.9-36.5 23.7 17.5-8.2 35.3-17.2 41.7-23.4C438.6 581.6 435.5 580.2 432.6 582.1L432.6 582.1z" style="clip-rule:evenodd;fill-rule:evenodd;fill:#F4CD2A"/>
      <path d="M499.4 690.9c3.8-14 13.4-38.4 18.9-44.3 1.5-1.5 1.7 4.5-0.6 8.3C509.7 668.3 503.9 681.9 499.4 690.9L499.4 690.9z" style="clip-rule:evenodd;fill-rule:evenodd;fill:#F4CD2A"/>
      <path d="M552.3 663.7c-9.4-13.9-27.1-32.3-34.6-37.7 -2-1.4-4.7 0.4-0.7 4.1C523.4 635.9 541 651.3 552.3 663.7L552.3 663.7z" style="clip-rule:evenodd;fill-rule:evenodd;fill:#F4CD2A"/>
      <path d="M514.6 583.3c-76.2-2.7-138.3-6.1-154.5-3.5 37.3 1.8 107.9 6.6 151.7 7.4C514.1 587.2 517.9 583.4 514.6 583.3L514.6 583.3z" style="clip-rule:evenodd;fill-rule:evenodd;fill:#F4CD2A"/>
      <path d="M458 704.1c-3.7-20.3 0.5-51.1 2.9-63.1 0.4-2.2 4.4-8.6 3.7-0.8C463.5 651.7 458 678.2 458 704.1L458 704.1z" style="clip-rule:evenodd;fill-rule:evenodd;fill:#F4CD2A"/>
      <path d="M526.9 725.7c-7.7-60.1-16.3-113.5-17.7-132.8 -0.3-4.5 3.3-8.1 4-2.9C521 647.6 527.4 706.4 526.9 725.7L526.9 725.7z" style="clip-rule:evenodd;fill-rule:evenodd;fill:#F4CD2A"/>
      <path d="M577.7 552.1c-26.9 12.9-60.8 33-82.5 53.8 -43.3 41.4-75.8 81.7-101.4 122.5 24.3-43.6 54-82.8 98.5-125.9 13.6-13.2 54.3-46.5 75.9-59.3 7.7-4.6 7.8-0.9 9.4 0.8C579.1 545.7 585.4 548.4 577.7 552.1L577.7 552.1z" style="clip-rule:evenodd;fill-rule:evenodd;fill:#F4CD2A"/>
      <path d="M474.4 584.3c-9.4 8.2-16.1 14.9-24.3 23.2 5.8-4.1 11.2-5.8 27.4-22.2C480.7 582.1 478.6 580.6 474.4 584.3L474.4 584.3z" style="clip-rule:evenodd;fill-rule:evenodd;fill:#F4CD2A"/>
      <path d="M457 671.3c-4.8 7.1-10.1 17.2-13.8 24.2 4.7-7.2 10.6-14.8 14.8-19.9C459.9 673.2 459.1 668.1 457 671.3L457 671.3z" style="clip-rule:evenodd;fill-rule:evenodd;fill:#F4CD2A"/>
      <path d="M440.6 645.7c-7.2-4.6-16.9-8.5-23.9-12.1 3.9 3.3 10.3 8.3 24.1 15.3C443.5 650.3 443.8 647.7 440.6 645.7L440.6 645.7z" style="clip-rule:evenodd;fill-rule:evenodd;fill:#F4CD2A"/>
    </g>
  </g>

  <g class="p_leaf">
    <path d="M321.3 142.1c-11.1 0-24.9-11.2-32.5-19.7 -0.1 0.3-0.2 0.7-0.3 1.1 -3.3 9.4-9.3 10.8-12.6 10.8l0 0c-0.9 0-1.9-0.1-2.9-0.3 -10.9-2.4-22.1-18-27.2-37.8 -0.4 0.6-0.8 1.2-1.3 1.8 -3.3 4.3-6.3 6.3-9.7 6.3 -1.3 0-2.7-0.3-4.1-1 -8.4-4.1-12.8-23.3-12.4-30.3 0.1-1.9-0.2-3.4-1-4.2 -0.6-0.7-1.4-0.8-1.8-0.8 -0.5 0-0.9 0.2-1.1 0.3 -1.9 1.5-3.8 2.3-5.9 2.3 -8.7 0-14-14.5-16.5-21.5 -0.2-0.7-0.4-1.2-0.6-1.7 -3.8-9.8-6.1-16.5-7-20.9 -6-3.4-14.1-8.2-20.7-13.2 -3-2.3-3.9-5.3-2.3-8.2 1.5-2.6 4.6-4.2 6.9-4.8 0.5-0.1 0.9-0.2 1.3-0.2 2.5 0 3.8 1.7 5 3.2 0.2 0.3 0.5 0.6 0.8 1 2.8 3.2 7.1 6.9 12.6 10.7 6.7-6.6 19.1-9.6 28.4-9.6 4.2 0 11.9 0.6 15.8 4.7 1.6 1.7 2.4 3.8 2.3 6 -0.1 1.1-0.3 2.2-0.5 3.2 1.2-0.5 3-1.4 5.6-2.8 2.1-1.1 4.4-2.5 6.8-3.9 8.1-4.9 17.4-10.4 25.6-10.4 4.3 0 8 1.5 11 4.5 4.5 4.5 4.9 12.1 1 18.2 -0.3 0.5-0.6 0.9-0.8 1.3 0.5-0.1 1-0.2 1.6-0.4 5-1.3 10.3-3.5 16-5.8 9.6-4 19.6-8.1 29.4-8.1 5.2 0 9.8 1.1 14 3.5 3.8 2.1 6.4 5.2 7.4 9 1 3.9 0.4 8.2-1.8 11.9l-0.3 0.5c-0.2 0.3-0.4 0.6-0.6 1 6.8-1.5 12.9-2.2 18.1-2.2 8.1 0 22.1 2.1 24.3 15.9 0.9 5.6-0.6 11-1.6 13.7 -0.3 0.8-0.8 2.1-1.5 3.4 5.3 1.1 9.6 3.4 12.7 6.8 3.5 3.9 5.3 9.2 5.1 15 -0.3 12.2-9.5 25.2-22.7 25.2 -2.4 0-4.8-0.4-7.2-1.2 -0.4 4.3-2 8.1-4.6 10.9 -3.6 3.8-8.9 5.9-15.4 5.9 -6.1 0-13.2-1.8-20.6-5.4C334.6 133.9 331.1 142.1 321.3 142.1z" style="clip-rule:evenodd;fill-rule:evenodd;fill:#29F4A2"/>
    <path d="M169.6 2.9c1.5 0 2.2 1.4 3.8 3.2 3.6 4.2 9.2 8.5 15 12.5 5.4-6.8 17.8-10.4 28-10.4 8.6 0 15.6 2.6 15.4 7.9 -0.2 3.4-2.3 6.8-0.1 6.8 1.3 0 3.9-1.1 9.2-3.9 9.3-5 21.3-14 31.2-14 3.4 0 6.5 1.1 9.1 3.7 3.7 3.7 3.8 10 0.7 14.8 -2.6 4.1-2.5 5.6-0.1 5.6 0.9 0 2.2-0.2 3.8-0.6 13.8-3.5 29.9-13.8 44.7-13.8 4.4 0 8.7 0.9 12.7 3.2 7.3 4 7.9 11.7 4.5 17.2 -1.5 2.5-3.7 5.8-0.5 5.8 0.5 0 1.1-0.1 1.8-0.2 7.2-1.6 13.2-2.3 18.2-2.3 33.2 0 19.7 31.3 16.3 32.4 31.4 1.7 21.7 42.3 0.1 42.3 -3 0-6.3-0.8-9.8-2.6 0.8 11.3-6 18.2-17.4 18.2 -6.4 0-14.2-2.2-22.9-6.9 -0.5 13.1-5.5 17.8-12.1 17.8 -10.2 0-24.4-11.4-31.9-20.4 -1-1.2-1.5-1.7-1.9-1.7 -0.8 0-0.6 2.5-1.5 5.2 -2.2 6.2-5.8 9-10.1 9 -0.7 0-1.5-0.1-2.3-0.3 -9.1-2-20-15.6-25.2-36 -0.7-2.9-1.3-4.1-1.9-4.1 -0.9 0-1.9 2.3-4.1 5.1 -3 3.9-5.4 5.3-7.5 5.3 -1 0-2-0.3-2.9-0.8 -6.7-3.3-11.4-20.6-10.9-27.8 0.3-5.7-2.8-7.8-5.5-7.8 -1.1 0-2.1 0.3-2.8 0.9 -1.4 1.2-2.8 1.7-4.1 1.7 -7.6 0-13-17.1-14.7-21.4 -3.3-8.5-6.3-16.8-7-21.7 -7.6-4.2-15.5-9.1-21.5-13.6 -2.2-1.6-2.3-3.3-1.5-4.7 0.9-1.6 3.1-3 5.2-3.5C169.1 2.9 169.4 2.9 169.6 2.9M169.6-2.5L169.6-2.5c-0.6 0-1.3 0.1-2 0.2 -2.9 0.7-6.7 2.7-8.6 6.1 -2.2 4-1 8.6 3 11.6 6.4 4.8 14.1 9.4 20 12.8 1.1 4.6 3.3 11.1 6.8 20.2 0.2 0.4 0.4 1 0.6 1.6 3 8.1 8.5 23.2 19 23.2 2.4 0 4.7-0.8 6.9-2.4 0.1 0.3 0.2 1 0.2 2 -0.4 7.3 3.9 28 13.9 32.9 1.8 0.9 3.5 1.3 5.3 1.3 4.3 0 7.5-2.5 9.9-5.1 5.9 18.5 16.7 32.1 27.7 34.6 1.2 0.3 2.3 0.4 3.5 0.4 5.9 0 10.8-3.5 13.9-9.6 3.5 3.6 7.6 6.9 11.5 9.7 7.5 5.2 14.2 7.8 20 7.8 5.2 0 13.6-2.2 16.5-15.1 6.6 2.8 12.9 4.2 18.5 4.2 7.2 0 13.2-2.3 17.3-6.7 2.4-2.6 4-5.7 4.9-9.3 1.7 0.4 3.3 0.5 5 0.5 7 0 13.5-3.2 18.4-9.1 4.3-5.2 6.8-12 7-18.7 0.3-9.2-4.2-19.9-16.8-23.8 0.1-0.2 0.2-0.5 0.2-0.7 1.1-3 2.7-8.8 1.7-15 -1.1-6.8-6-18.1-27-18.1 -4 0-8.4 0.4-13.3 1.2 1.2-3.4 1.3-7 0.4-10.4 -1.2-4.5-4.2-8.2-8.7-10.7 -4.6-2.5-9.8-3.8-15.3-3.8 -10.3 0-20.5 4.2-30.4 8.3 -4 1.6-7.8 3.2-11.4 4.4 2.1-6.1 0.8-12.8-3.5-17.1 -3.5-3.5-7.8-5.3-12.9-5.3 -9 0-18.6 5.7-27 10.8 -2.4 1.4-4.6 2.8-6.7 3.9 -0.4 0.2-0.8 0.4-1.2 0.6 -0.2-2.4-1.2-4.7-3-6.5 -4.4-4.6-12-5.6-17.7-5.6 -9.4 0-21.1 2.8-28.6 8.9 -4.5-3.2-8-6.3-10.4-9 -0.3-0.3-0.5-0.6-0.8-0.9C175.4 0 173.3-2.5 169.6-2.5L169.6-2.5z" fill="#FFF"/>
  </g>
  <g>
    <path d="M291.3 618.9c4-6.9 5.4-12.7 4.3-17 -2.5-3.9-8.5-5.9-18-5.9l-1.9 0 -0.8-1.1c-5.6-8.2-9.2-11.8-15.6-11.8 -2.2 0-4.8 0.4-7.9 1.3l-4.5 1.2 1.3-4.5c2.3-7.8 10.2-11.9 17.1-15.6 4.9-2.5 9.4-4.9 10.1-7.7 0.3-1.3-0.2-2.8-1.4-4.7l-1.9-2.8 3.2-1.1c0.6-0.2 1.2-0.4 1.8-0.6 3.6-1.2 7-2.4 10.4-2.4 4.7 0 6.5-0.6 7.1-0.9 -0.5-0.9-2.5-2.9-7.6-5.8 -3.9-2.2-7.9-3.9-11.7-5.6 -5.1-2.3-10.5-4.7-16-8.2l-4.3-2.7 4.7-1.9c7.1-2.9 11.2-6.4 11.8-10.2 0.7-4.5-3.8-9.2-7.6-12.3l-1.2-1 0.3-1.5c1.8-9.4-2.3-15.8-12.1-28.3l-4-5.2 6.5 1c3.8 0.6 7.4 1.7 10.6 2.8 3.7 1.2 6.8 2.2 9.7 2.2 2.9 0 5.2-1.1 7.4-3.6l1.7-2 1.9 1.8c5.3 4.8 10.4 7.4 14.3 7.4 2.2 0 3.9-0.8 5.2-2.4 2.4-3 2.9-8.4 1.4-14.8l-1.1-4.5 4.4 1.4c5.6 1.8 12.4 9.3 19.7 17.2 6 6.6 14.2 15.5 17.8 15.5 0.2 0 0.3 0 0.4-0.1 1.4-1.2 4.4-5.8 3.2-24.3l-0.2-3.6 3.5 0.9c1.7 0.5 3.3 0.7 4.7 0.7 6.4 0 8.4-4.7 11.2-12.5 2.5-6.9 5.3-14.7 14.1-15.4l3.7-0.3 -0.9 3.6c-0.6 2.5-0.3 4.8 1.1 7 2.9 4.7 9.9 8.1 15.6 9.4l2.1 0.5 -0.1 2.2c-0.4 9.3 0.4 15.2 2.4 18.6 2.5 4.1 10.4 10.4 15.4 10.4 1.4 0 2.1-0.6 2.4-1l3.1-3.7 1.4 4.6c2.6 8.5 0.3 15.4-3.3 24.2 -0.3 0.7-0.6 1.5-1 2.4 -1.8 4.4-4.1 9.8-5.1 14.6 -0.7 3.5 0 7.1 1.7 9.2 0.9 1.1 2 1.6 3.4 1.6 1.3 0 2.9-0.5 4.6-1.5l2.6-1.5 1.2 2.8c1.3 3.2 1.1 7.4-0.8 11.8 -3.4 8.1-11.4 15.5-20.9 19.2 -2.6 1-3.5 3.1-3.8 4.3 -0.4 1.8-0.1 3.4 0.5 4.1l1.9 2.2 -2.4 1.6c-4 2.6-8.4 4-13 4 -2.3 0-4.5-0.3-6.8-0.9 8.2 11.5 15 21.9 18.7 28.8 2.6 4.8 2.2 7.7-1.1 9.7 -0.1 0.1-0.3 0.1-0.4 0.2 -0.1 0.1-0.3 0.4-0.5 0.6 -0.9 1.1-2.3 2.8-4.5 2.8 -3.1 0-4.5-3.3-4.9-4.4 -4.7-11.1-10.3-22.4-16.2-32.5 -0.6 3.6-1.9 6.9-3.6 9.9 -6.3 10.6-12.3 13.7-18.7 17 -3 1.6-6.2 3.2-9.6 5.7l-4.6 3.5 0.4-5.7c0-0.4 0.1-0.8 0.3-1.7 1.3-5.8 0.9-7.3 0.6-7.6 -0.3-0.3-0.5-0.3-0.6-0.3 -1.3 0-3.7 1.8-5.4 3.2 -1.2 0.9-2.4 1.9-3.6 2.6 -8.5 4.8-28.2 10.6-40.7 11.9l-5.1 0.5L291.3 618.9z" style="clip-rule:evenodd;fill-rule:evenodd;fill:#FFF"/>
    <path d="M383.5 432.8c-2.9 11.2 10.7 17.8 18.6 19.6 -0.4 9.5 0.4 16 2.8 20 2.9 4.7 11.5 11.6 17.6 11.6 1.8 0 3.3-0.6 4.4-1.9 2.4 7.6 0.4 13.6-3.3 22.4 -2 4.8-5.1 11.5-6.2 17.5 -1.3 6.8 1.6 13.9 7.6 13.9 1.7 0 3.7-0.6 5.9-1.9 3.1 7.3-5 21.5-20.2 27.6 -6 2.4-6.8 9.6-4.3 12.5 -3.5 2.3-7.4 3.5-11.6 3.5 -4.7 0-9.8-1.6-14.9-5 9.2 12.4 19.4 27.2 24.4 36.7 3 5.7 0.4 5.6-0.9 6.7 -0.8 0.7-1.9 2.7-3.3 2.7 -0.8 0-1.6-0.7-2.5-2.8 -5.3-12.5-12.5-27-20.7-40.1 0.4 6.7-0.9 12.4-3.7 17.2 -8.9 15-16.9 13.9-27.6 22 0.1-1 2.5-8.9 0.3-11.2 -0.8-0.8-1.6-1.1-2.5-1.1 -3.2 0-7.2 4.3-10.3 6.1 -8 4.6-27.2 10.3-39.7 11.6 4.5-7.8 6-14.2 4.4-19.4 -2.9-5-9.7-7.5-20.4-7.5 -0.2 0-0.3 0-0.5 0 -5.9-8.6-10.1-12.9-17.7-12.9 -2.5 0-5.3 0.5-8.6 1.4 4.5-15.3 35.4-15.4 25.4-30.2 4.2-1.4 7.9-2.9 11.4-2.9 0 0 0 0 0 0 0 0 0 0 0.1 0 14.5 0 11.3-5.7 0.7-11.6 -9.3-5.2-18.1-7.8-27.5-13.7 15.3-6.2 18.4-15.9 4.8-26.9 2-10.7-2.8-17.8-12.6-30.4 8 1.2 14.6 5 20.6 5 3.3 0 6.4-1.1 9.4-4.5 6.2 5.6 11.7 8.1 16.1 8.1 7.9 0 11.9-8.2 9.1-20.4 10.4 3.4 29.2 32.8 38.3 32.8 0.7 0 1.3-0.2 1.8-0.5 3.9-2.8 5.3-11.7 4.4-26.6 2 0.5 3.8 0.8 5.4 0.8C374.5 460.8 368.8 434.1 383.5 432.8M390.4 427l-7.3 0.6c-10.5 0.9-13.8 10.3-16.3 17.2 -2.9 8.2-4.5 10.7-8.7 10.7 -1.2 0-2.5-0.2-4-0.6l-7-1.8 0.5 7.2c0.9 14.4-0.7 19.6-1.7 21.3 -0.8-0.4-2.4-1.4-5.1-3.9 -3.1-2.9-6.7-6.8-10.1-10.5 -7.5-8.2-14.5-15.9-20.8-17.9l-8.8-2.8 2.1 9c1.5 6.5 0.5 10.8-0.9 12.6 -0.8 1-1.8 1.4-3.1 1.4 -3.3 0-7.9-2.5-12.6-6.8l-3.9-3.5 -3.5 3.9c-2.2 2.4-3.9 2.8-5.5 2.8 -2.4 0-5.4-1-8.9-2.1 -3.3-1.1-6.9-2.3-11-2.9l-13-2 8.1 10.3c10.2 13 13.1 18.3 11.6 26.2l-0.6 3.1 2.4 2c4.6 3.7 7 7.3 6.7 9.9 -0.4 2.7-4.1 5.7-10.2 8.2l-9.4 3.8 8.6 5.4c5.7 3.6 11.1 6 16.3 8.3 3.9 1.8 7.6 3.4 11.5 5.5 1.2 0.7 2.2 1.3 3 1.8 -0.4 0-0.8 0-1.2 0l0 0h0c-3.8 0-7.4 1.2-11.3 2.6 -0.6 0.2-1.2 0.4-1.8 0.6l-6.5 2.2 3.8 5.7c0.9 1.4 1.2 2.2 1.1 2.6 -0.4 1.6-5.5 4.3-8.8 6 -7 3.7-15.7 8.2-18.4 17.1l-2.7 9 9-2.5c2.9-0.8 5.3-1.2 7.2-1.2 4.8 0 7.7 2.3 13.4 10.7l1.6 2.3 2.8 0 0.5 0c5.7 0 12.9 0.8 15.6 4.4 0.8 3.6-0.6 8.7-4.1 14.7l-5.1 8.8 10.2-1.1c13-1.4 32.9-7.2 41.7-12.3 1.4-0.8 2.7-1.8 3.9-2.8 0.5-0.4 1.2-0.9 1.9-1.4 -0.1 0.9-0.3 2-0.7 3.6 -0.2 0.9-0.3 1.5-0.4 2.1l-0.8 11.4 9.1-6.9c3.2-2.4 6.2-4 9.2-5.5 6.4-3.3 13-6.7 19.7-18 0.9-1.4 1.6-2.9 2.2-4.5 4.7 8.6 9.1 17.7 13 26.8 2.1 5 5.1 6 7.3 6 3.4 0 5.4-2.4 6.5-3.7 0.1-0.1 0.1-0.2 0.2-0.2 0 0 0 0 0 0 4.6-2.7 5.3-7.1 2.1-13.1 -3.2-5.9-8.6-14.4-15.3-24 0.4 0 0.7 0 1.1 0 5.2 0 10-1.5 14.5-4.4l4.9-3.2 -3.7-4.4c-0.1-0.3-0.3-1.1 0.1-2.2 0.4-1 1.1-1.7 2.1-2.1 10.1-4 18.7-11.9 22.3-20.6 2.1-5 2.4-9.9 0.8-13.8l-2.3-5.5 -5.1 3c-1.7 1-2.8 1.2-3.3 1.2 -0.5 0-0.9-0.1-1.4-0.7 -1-1.2-1.7-3.8-1.1-7 0.9-4.5 3.1-9.8 4.9-14.1 0.4-0.8 0.7-1.6 1-2.4 3.8-9.3 6.3-16.6 3.4-25.9l-2.8-9.1 -6.1 7.3c0 0-0.2 0.1-0.4 0.1 -3.7 0-10.9-5.4-13.2-9.1 -1.7-2.8-2.4-8.6-2-17.1l0.2-4.4 -4.3-1c-5-1.1-11.5-4.2-14-8.2 -1-1.6-1.2-3.2-0.7-5L390.4 427 390.4 427z" fill="#F4CD2A"/>
  </g>

  <g>
    <g>
      <path d="M294.1 708.4c-1.1 0-2.2-0.1-3.2-0.4l-2.3-0.6 1.4-1.9c5.2-7.1 11.2-22.2 8.4-27.8 -0.4-0.8-1.2-1.9-3.6-1.9 -0.2 0-0.3 0-0.5 0l-2.3 0.1 0.6-2.2c0.9-3.4 2.1-6.7 3.2-9.8 1.8-5.2 3.9-11.1 2.7-12.7 -0.3-0.4-0.9-0.6-1.8-0.6 -1.1 0-2.7 0.3-4.6 0.9l-1 0.3 -0.7-0.7c-5.2-5.4 0-12.8 3.4-17.6 0.9-1.3 2.1-3 2.5-4 -0.1 0-0.2 0-0.3 0 -1.2 0-3.3 0.4-6.2 1.2l-1.7 0.5 -0.3-1.8c-1.2-7.5 2.6-14.5 5.1-19.1 0.6-1.2 1.4-2.5 1.7-3.4 -1.2 0.1-3.2 0.8-6.2 1.8l-1.7 0.6 -0.5-1.7c-3.4-12.7 7.5-20.7 14-25.5 1.6-1.1 3.4-2.5 4.1-3.3 -0.7-0.3-2.7-0.9-8.3-1.3l-2-0.2 0.5-1.9c3.6-13.4 12.1-24.3 24.6-31.7 11-6.5 25-10.1 39.3-10.1 13.1 0 25.9 3 35.9 8.4 20.2 10.9 33.8 27.2 39.3 47.2 5.7 20.3 2.3 43.3-9.3 63l-1.8 3.1 -1.1-3.5c-1.8-5.6-2.9-6.7-3.2-7 -0.9 0.6-2.5 4-3.6 6.6 -3 6.8-7.2 16.1-15 16.7l-1 0.1 -0.5-0.9c-2.8-4.7-4.3-5.2-4.7-5.2 -1.3 0-3.2 3.4-5.1 6.7 -2.8 5.1-6.3 11.4-12.3 15.8l-1.7 1.2 -0.8-1.9c-2.6-6.1-4.1-6.6-4.5-6.6 -1.1 0-3 2.7-4.6 5 -2.5 3.6-5.6 8-10.1 10.4l-2.3 1.2 -0.1-2.5c-0.1-2.2-0.9-2.2-1.5-2.2 -2.8 0-8.2 3.5-12.2 6.1 -4 2.7-6.2 4-7.8 4 -0.9 0-1.6-0.4-2-1.2l-0.2-0.4 0.1-0.5c0.7-5.2-0.1-6.5-0.3-6.8 -0.1-0.1-0.2-0.2-0.5-0.2 -2.1 0-6.5 3.3-10.8 6.4C309.8 702.3 301.6 708.4 294.1 708.4z" style="clip-rule:evenodd;fill-rule:evenodd;fill:#29F4A2"/>
      <path d="M358.7 535.2c12.7 0 25.1 2.8 35.1 8.2 43.9 23.7 51.1 71 29.4 107.9 -1.9-5.9-3.4-8.1-4.8-8.1 -4.4 0-7.6 22.5-18.7 23.4 -2.6-4.3-4.5-6-6.1-6 -4.9 0-7.6 14.9-18.3 22.9 -2.4-5.6-4.3-7.6-6-7.6 -4.1 0-7.6 11.5-15.5 15.6 -0.1-2.7-1.3-3.7-3.1-3.7 -5.6 0-17.2 10.2-20 10.2 -0.3 0-0.4-0.1-0.5-0.3 0.8-6.4-0.2-8.8-2.4-8.8 -6.2 0-21.8 17.9-33.8 17.9 -0.9 0-1.9-0.1-2.8-0.4 6.6-8.9 15.5-32.3 3.5-32.3 -0.2 0-0.4 0-0.6 0 3.3-12.5 10.8-25.2 2.6-25.2 -1.3 0-3 0.3-5.1 1 -7.6-8 12.7-22.1 4.5-22.1 -1.4 0-3.5 0.4-6.6 1.2 -2-12.5 11.1-23.9 5.6-23.9 -1.3 0-3.5 0.6-7.2 2 -6-22.5 37.2-29.1 8.3-31.3C303.8 547.9 331.8 535.2 358.7 535.2M358.7 531.9l0 3.3L358.7 531.9c-24.9 0-57 11.3-65.6 43l-1 3.8 3.9 0.3c2.2 0.2 3.8 0.4 5 0.5 -0.5 0.4-1.1 0.8-1.6 1.2 -6.4 4.7-18.3 13.4-14.6 27.2l0.9 3.5 3.4-1.2c1-0.4 1.8-0.7 2.5-0.9 0 0-0.1 0.1-0.1 0.1 -2.6 4.8-6.5 12.1-5.2 20.2l0.6 3.6 3.5-0.9c1.2-0.3 2.1-0.5 2.9-0.7 -0.2 0.3-0.5 0.7-0.7 1 -3.5 5-9.3 13.3-3.2 19.7l1.4 1.5 1.9-0.6c2.2-0.7 3.4-0.8 4.1-0.8 0.2 0 0.3 0 0.4 0 0.3 1.8-1.6 7.3-3 11.1 -1.1 3.1-2.3 6.5-3.2 10l-1.2 4.4 4.5-0.3c0.1 0 0.3 0 0.4 0 1.5 0 1.9 0.5 2.1 1 1.9 3.8-1.8 17.4-8.2 26.1l-2.8 3.8 4.6 1.2c1.1 0.3 2.4 0.5 3.6 0.5 8.1 0 16.5-6.2 24-11.8 2.9-2.2 7.2-5.3 9.2-6 0.1 0.7 0.2 2.2-0.2 5l-0.1 1 0.5 0.9c0.7 1.3 1.9 2.1 3.4 2.1 2 0 4.3-1.4 8.7-4.3 3.2-2.1 8.6-5.7 11-5.9 0 0.1 0.1 0.3 0.1 0.6l0.2 5.1 4.5-2.3c4.9-2.5 8.1-7.2 10.7-10.9 1-1.4 2.4-3.4 3.2-4.2 0.5 0.5 1.5 1.9 3.1 5.4l1.6 3.8 3.3-2.5c6.3-4.7 10-11.4 12.7-16.3 1.2-2.1 2.7-5 3.7-5.8 0.4 0.3 1.5 1.3 3.3 4.3l1 1.7 2-0.2c8.7-0.7 13.1-10.5 16.3-17.7 0.6-1.4 1.4-3.1 2.1-4.4 0.4 0.9 1 2.4 1.7 4.6l2.2 6.9 3.7-6.3c11.8-20.1 15.3-43.6 9.5-64.3 -5.7-20.4-19.6-37.1-40.1-48.2C385.1 535 372.1 531.9 358.7 531.9L358.7 531.9z" fill="#010101"/>
    </g>
    <g>
      <path d="M311.7 685.1c27.4-21.8 64.9-77.4 84.3-128.4 8.2-21.6 12.1-42.2 12.2-59.2 0.1-10.8-11.7-4.2-11.9 0.7 0.5 1.5 0.9 5 1.2 6.5 3.1 16.3-2 32.1-7.1 48.7C376.8 597.4 338.5 654.6 311.7 685.1L311.7 685.1z" style="clip-rule:evenodd;fill-rule:evenodd;fill:#010101"/>
      <path d="M388 569.8c1.7 13.8 11.4 38.3 23.5 50.8 -8.7-13.9-16.9-36.9-19.7-52.2C389.9 558.6 388 569.6 388 569.8L388 569.8z" style="clip-rule:evenodd;fill-rule:evenodd;fill:#010101"/>
      <path d="M388.1 565c-14.1 6.8-37.2 8.5-52.4 3.4 15 1.5 34.5-1.3 52.8-8.1C395.6 557.7 388.5 564.9 388.1 565L388.1 565z" style="clip-rule:evenodd;fill-rule:evenodd;fill:#010101"/>
      <path d="M372.2 603.7c0.5 14.8 8.7 34.8 19.8 45.1 -8.2-12.6-14.5-30.4-16.7-46.9C374.2 593.6 372.1 600.8 372.2 603.7L372.2 603.7z" style="clip-rule:evenodd;fill-rule:evenodd;fill:#010101"/>
      <path d="M374.3 593.5c-16.6 5.2-35.9 8.3-53.3 11.8 12.4 1 35.8-0.8 52.6-7.6C376.6 596.5 380.2 591.7 374.3 593.5L374.3 593.5z" style="clip-rule:evenodd;fill-rule:evenodd;fill:#010101"/>
      <path d="M354 633.4c-2 8.5 1.3 22.3 8 30.9 -3.6-7.2-5.5-20-5-31.9C357.3 626.2 354.6 630.8 354 633.4L354 633.4z" style="clip-rule:evenodd;fill-rule:evenodd;fill:#010101"/>
      <path d="M357.4 623.5c-7.8 3.3-27.5 9.8-38.9 13.5 9.9 0.4 27-4.4 37.1-8.7C358.7 627 361.6 621.7 357.4 623.5L357.4 623.5z" style="clip-rule:evenodd;fill-rule:evenodd;fill:#010101"/>
    </g>
  </g>

  <g class="p_leaf">
    <path d="M266.1 549c16.3-64.8-32.4-46-34.1-41.4 -1.1-42-63.2-23.2-46.8 10 -20.7-2-29.1 18.1-14.5 46.8 -39.3 0.5-15.4 36.6 1.6 51.6 4.4 3.9 0.3 2.4-4.3 3.9 -8.6 2.8-11.8 8.1-10.6 14.2 2.1 10.7 17.6 24 41.3 30.7 8.1 2.3 4.5 2.8-1.4 7 -6.9 4.9-7.3 8.6-5.6 12.1 3.6 7.9 23.8 14 32.1 13.7 9.4-0.3 10.3 7.1 7.8 9.9 -9.8 11.1 16.5 20.2 22.4 22.7 13.3 5.6 26.2 10.5 29.5 9 17.7-7.7 22-52.8 7.4-52.5 -6.2 0.1-12.7 6-3-10.7 8.3-14.3 25.2-34.3 13.4-46.9 -4.2-4.5-11.5-4.8-17.3-1.3 -6.7 4.1-7.6 2.2-5.7-4.5 5.9-20.8 25.4-45.6 14.4-66.9 -4.4-8.7-13.4-9.6-20-5.9C269.2 552.6 264.5 555.6 266.1 549L266.1 549z" style="clip-rule:evenodd;fill-rule:evenodd;fill:#29F4A2"/>
    <g>
      <path d="M262.3 692c1.1-7.7 8.4-21.5 19.5-32.7 -11 17.2-14.3 27.4-16.6 35.2C263.2 701.3 262.2 692.7 262.3 692L262.3 692z" style="clip-rule:evenodd;fill-rule:evenodd;fill:#FFF"/>
      <path d="M244.1 646.9c1.5-8.4 8.6-27.1 22.7-51.2 -12.9 29.3-18.1 46.2-20 54.4C244.5 660 244.1 647 244.1 646.9L244.1 646.9z" style="clip-rule:evenodd;fill-rule:evenodd;fill:#FFF"/>
      <path d="M225.2 590.7c-12.8-9.9-32-31.8-38.4-43.6 3.8 5.5 18.5 21.8 36.2 37.2C225.3 586.2 227.4 592.4 225.2 590.7L225.2 590.7z" style="clip-rule:evenodd;fill-rule:evenodd;fill:#FFF"/>
      <path d="M260.7 694.5c-12.7-3.9-23.8-5-29.1-5 3.9 1.6 16.6 4.3 29.9 9.2C266.9 700.6 261.9 694.9 260.7 694.5L260.7 694.5z" style="clip-rule:evenodd;fill-rule:evenodd;fill:#FFF"/>
      <path d="M239 632.8c-23.4-10.1-43.9-24.6-50.5-34.5 8.4 7.7 19.8 16.8 47.5 29.2C237.3 628 242.6 634.3 239 632.8L239 632.8z" style="clip-rule:evenodd;fill-rule:evenodd;fill:#FFF"/>
      <path d="M250.2 666.6c-20.2-3.8-46.3-15.9-55.8-20.4 13.1 3.5 29.5 10.6 54 16C249.7 662.5 256.5 667.8 250.2 666.6L250.2 666.6z" style="clip-rule:evenodd;fill-rule:evenodd;fill:#FFF"/>
      <path d="M228.1 596.6c2.7-11.5 12.1-31.1 23.4-51.7 -13.9 34.5-19.5 50.2-20.8 55.2C228 609.9 227.3 599.8 228.1 596.6L228.1 596.6z" style="clip-rule:evenodd;fill-rule:evenodd;fill:#FFF"/>
      <path d="M271.2 723c-35.8-80.4-55.1-150.5-65.1-215.7 15.6 73.1 37.3 139.3 69.3 209.8 5.3 11.7 15.5 29.7 25.1 38.5 2.4 2.2 4.2 3.1 3.5 5.4 -0.7 2.4-2.3 4.9-4.2 5.9 -1.7 0.9-3.7 0.6-5.5-2C286 753.1 276.8 735.5 271.2 723L271.2 723z" style="clip-rule:evenodd;fill-rule:evenodd;fill:#FFF"/>
    </g>
  </g>

  <g class="p_leaf">
    <path d="M100.4 696.9c5 9.8 30 27.8 41.8 14.7 12.2 8.6 31.5 3.6 33.7-3.9 29.1-5.9 16.1-17.3 20.5-19.8 4.6-2.7 8.5-7.3 10.8-12.4 1.8-4.1-1.2-5.5-1.2-13.7 0-6.1 11.4-15.5 9.6-20.9 -1-3.1-7.2-7.5-7.2-15.8 0-9.1 5-13.8 3.8-19.3 -2.2-10.2-9.9-9.4-13.6-18.1 -3.3-7.7 0.3-10.3-2.4-19.9 -1.7-6-19.2-14.4-22.2-33.8 -17.8 16.4-26.1 6.6-34.4 9.3 -4 1.3-6.9 7.6-12.3 9.1 -5.5 1.6-10.3-2.4-17.6 0.4 -8.4 3.2-6.2 9.6-11.3 13 -6.6 4.3-16.3-3.5-25.1 11.3 -4.8 8.1-3.7 12.4-14.7 14.5 -5.7 1-8 6.5-8.9 12.4 -1.3 7.9 1.1 17.7 1.3 22.4 -10.5 3.2-5.9 24.4 11.5 40.5C54.9 678 82.6 697.9 100.4 696.9L100.4 696.9z" style="clip-rule:evenodd;fill-rule:evenodd;fill:#F4CD2A"/>
    <g>
      <path d="M154.5 589.7c7.4-3.5 17.5-9.5 24-14.4 -2.8 5.2-15.5 14.9-25.4 18.6C148.6 595.7 153.4 590.3 154.5 589.7L154.5 589.7z" style="clip-rule:evenodd;fill-rule:evenodd;fill:#29F4A2"/>
      <path d="M148.9 595.8c-5.9-9-8.4-28-8-33.4 1.7 7.2 5.8 21.4 9.8 27.5C153.2 593.9 150.8 598.8 148.9 595.8L148.9 595.8z" style="clip-rule:evenodd;fill-rule:evenodd;fill:#29F4A2"/>
      <path d="M123.8 648.5c-9.8-19.9-13.9-43.4-11.1-65.9 1.7 24.8 7.4 45.1 13.8 62.1C127.2 646.5 126.6 654.1 123.8 648.5L123.8 648.5z" style="clip-rule:evenodd;fill-rule:evenodd;fill:#29F4A2"/>
      <path d="M80.6 600.6c-2.8 33.2 5.5 62.5 22.4 84.5 1.7 2.3 3.9-2.2 3.8-2.4C93.2 665.5 82 636.6 80.6 600.6L80.6 600.6z" style="clip-rule:evenodd;fill-rule:evenodd;fill:#29F4A2"/>
      <path d="M128 642.2c21.5-7.1 41.2-17 58.6-26.9 -10.3 9.2-33.8 24.9-59.9 31.5C124.4 647.4 126.2 642.8 128 642.2L128 642.2z" style="clip-rule:evenodd;fill-rule:evenodd;fill:#29F4A2"/>
      <path d="M72.9 724.3c7.2-8.5 15.5-18.8 18.4-23.2 15.9-23.7 31.1-50 41.6-71.9 17.4-36.3 23.8-51.2 36.8-81.2 -8.5 26.2-17.3 54-31 82.8 -8.6 17.9-23 47.7-39 72.7 -5.2 8.2-13.7 22.6-19.2 29.3C79.9 733.5 65.8 732.6 72.9 724.3L72.9 724.3z" style="clip-rule:evenodd;fill-rule:evenodd;fill:#29F4A2"/>
      <path d="M106.1 690.9c26.8-5 61.1-17 77.2-31.4 -20.2 11.7-52.5 22.4-74.8 26.3C103.1 686.7 99.6 692.1 106.1 690.9L106.1 690.9z" style="clip-rule:evenodd;fill-rule:evenodd;fill:#29F4A2"/>
    </g>
  </g>

  <g class="p_leaf">
    <path d="M-57.3 494.5c0.9 0.5 6.8 6.5 10 5.6 5-1.4 1.8-9.2 1.6-13.9 -0.3-9.4 3.5-29.5 8.3-41.4 4.9 7.7 10 12.1 15.5 13.2 6-0.3 11.5-5.4 16.6-15.4 14-1.7 19.8-4.2 22.9-18.3 11.7 11.3-2.9 39.3 15.2 37.3 -0.7 4.4-1.1 8.5-2.8 11.7 -6.9 13.2-0.3 13 10.1 6.2 9.1-6 15.6-12.7 25.4-18.4 -1.6 16.8 5.7 24.2 22.1 17.1 8.7 6.9 17.4 5.9 33.4 3 -7.5 10.3-19.3 14.8-14.7 26.9 -22.8 8.4-19.9 23.7-0.8 28.6 -8.6 8.4-48.8 11.3-48.2 20.9 0.7 4.8 8 10.3 22 16.6 -16.5 18 16.4 25.4 10 40.7 -8.8-7.9-21.1 1.2-26.5 7.6 -8.4-4.8-14.7-7.3-19.4-7 -7.3 0.5-22.3 7.9-19.2 15.3 -8-1.5-12.5-6.1-18.7-13.5 -3.4-4.1-8-10-12.9-13.9 -7.1-5.6-17.9-5.3-17.3 6.6 -8-0.7-17.1-14.7-15.4-31.3 0.7-6.5-5.4-10.7-9.3-9.8 -1-10.2 4.7-19.8 18.1-25.3 -9.1-2.9-15.6-7.4-19.4-13.7C-59.8 514.7-55 508.1-57.3 494.5L-57.3 494.5z" style="clip-rule:evenodd;fill-rule:evenodd;fill:#FFF"/>
    <g>
      <path d="M-28.9 543.2c1.6 7.4 2.2 15.9 3.1 23.1 -1.3-4-3.5-6.4-5.3-20.5C-31.4 543-29.6 539.9-28.9 543.2L-28.9 543.2z" style="clip-rule:evenodd;fill-rule:evenodd;fill:#F4CD2A"/>
      <path d="M-2.1 562.3c5 10.9 10.8 27.8 12.7 34.2C2.4 581.4 1.2 578-4.5 561 -4.9 559.8-2.1 562.3-2.1 562.3L-2.1 562.3z" style="clip-rule:evenodd;fill-rule:evenodd;fill:#F4CD2A"/>
      <path d="M79.5 537.8c-15.1 0.2-39.7-3-49.7-8.5 -1.2-0.7 0.2-2.1 1.7-1.6C50.4 533.4 69.4 536.6 79.5 537.8L79.5 537.8z" style="clip-rule:evenodd;fill-rule:evenodd;fill:#F4CD2A"/>
      <path d="M19.7 575.7c12.1-0.6 27-1.1 31.7-1.5 -14-1.3-28.6-2.2-34.9-0.6C15.7 573.8 17.2 575.8 19.7 575.7L19.7 575.7z" style="clip-rule:evenodd;fill-rule:evenodd;fill:#F4CD2A"/>
      <path d="M17.7 482.5c-7.6 7.4-22.6 19.3-28.3 20.9 -1.5 0.4 0.6-3.5 3.4-5C2.9 493 11.6 486.5 17.7 482.5L17.7 482.5z" style="clip-rule:evenodd;fill-rule:evenodd;fill:#F4CD2A"/>
      <path d="M-25.7 480.1c0.8 12.2 5.2 30.4 7.9 36.5 0.7 1.6 3.1 1.5 1.9-2.3C-17.7 508.3-23.2 492.1-25.7 480.1L-25.7 480.1z" style="clip-rule:evenodd;fill-rule:evenodd;fill:#F4CD2A"/>
      <path d="M-31.6 544.7c47 29.8 84.9 54.8 96.1 59.2 -22.9-14.9-65.6-44-92.9-60.6C-29.8 542.4-33.6 543.4-31.6 544.7L-31.6 544.7z" style="clip-rule:evenodd;fill-rule:evenodd;fill:#F4CD2A"/>
      <path d="M48.7 489.4c-5.1 14.1-19.1 32-25.1 38.7 -1.1 1.2-5.9 3.8-2.6-0.8C25.9 520.5 39.1 505.8 48.7 489.4L48.7 489.4z" style="clip-rule:evenodd;fill-rule:evenodd;fill:#F4CD2A"/>
      <path d="M13.2 450.4c-17.3 40.8-31.5 77.5-37.7 90.2 -1.4 2.9-5 3.9-3.6 0.4C-11.9 501.8 5.7 462.3 13.2 450.4L13.2 450.4z" style="clip-rule:evenodd;fill-rule:evenodd;fill:#F4CD2A"/>
      <path d="M-82.8 541.1c21.7 1.8 50.5 1.6 71.9-3.5 42.6-10.1 77.9-23.6 109.1-39.8 -31.4 18.5-64.6 32.3-108.5 43.1 -13.4 3.3-51.4 9.3-69.7 9.4 -6.5 0.1-5.2-2.3-5.6-4C-86.1 544.6-89 540.6-82.8 541.1L-82.8 541.1z" style="clip-rule:evenodd;fill-rule:evenodd;fill:#F4CD2A"/>
      <path d="M-5.8 558.9c8.9-1.7 15.6-3.4 23.9-5.7 -5.1 0.5-9.2-0.5-25.5 3.9C-10.6 557.9-9.8 559.7-5.8 558.9L-5.8 558.9z" style="clip-rule:evenodd;fill-rule:evenodd;fill:#F4CD2A"/>
      <path d="M37.2 510.4c5.6-2.7 12.7-7.1 17.6-10.1 -5.6 2.8-12.1 5.5-16.6 7.1C36.1 508.1 34.7 511.7 37.2 510.4L37.2 510.4z" style="clip-rule:evenodd;fill-rule:evenodd;fill:#F4CD2A"/>
      <path d="M38.1 532.7c2.9 5.6 7.5 11.6 10.6 16.4 -1.3-3.5-3.4-9-9.6-18.6C37.9 528.6 36.8 530.2 38.1 532.7L38.1 532.7z" style="clip-rule:evenodd;fill-rule:evenodd;fill:#F4CD2A"/>
    </g>
  </g>

  <g class="p_leaf">
    <path d="M167.6 226.2c-46.8-15.8-35.8 21.2-32.5 22.6 -31-1.7-20.8 45.2 4.6 35.1 -2.7 15.1 11.6 22.5 33.6 13.5 -2 28.9 26 13.5 38.1 1.9 3.1-3 1.8-0.1 2.6 3.4 1.5 6.5 5.2 9.2 9.8 8.7 8-0.9 18.7-11.6 25.1-28.6 2.2-5.9 2.3-3.1 5.1 1.5 3.2 5.4 5.9 5.8 8.6 4.9 6.1-2.2 11.7-16.7 12-22.9 0.4-6.9 5.9-7.1 7.8-5.2 7.6 7.9 15.9-11 18-15.2 4.9-9.5 9.3-18.7 8.4-21.2 -4.6-13.5-37.6-19.3-38.2-8.6 -0.3 4.6 3.7 9.7-8.1 1.6 -10.1-6.9-23.8-20.6-33.7-12.7 -3.6 2.9-4.2 8.2-2 12.7 2.6 5.2 1.2 5.7-3.6 3.9 -15-5.6-32.1-21.4-48.4-14.6 -6.6 2.8-7.9 9.3-5.5 14.4C170.5 224.2 172.4 227.8 167.6 226.2L167.6 226.2z" style="clip-rule:evenodd;fill-rule:evenodd;fill:#F4CD2A"/>
    <g>
      <path d="M272.8 237.5c-5.6-1.2-15.3-7.5-22.9-16.3 12 9.1 19.3 12.2 25 14.3C279.7 237.4 273.3 237.6 272.8 237.5L272.8 237.5z" style="clip-rule:evenodd;fill-rule:evenodd;fill:#FFF"/>
      <path d="M238.5 248.3c-6.1-1.6-19.5-7.9-36.4-19.7 20.8 11.2 32.9 16.1 38.9 18C248.1 248.7 238.5 248.3 238.5 248.3L238.5 248.3z" style="clip-rule:evenodd;fill-rule:evenodd;fill:#FFF"/>
      <path d="M196 258.8c-8.1 8.9-25.3 21.7-34.4 25.7 4.3-2.4 17.2-12.4 29.5-24.4C192.7 258.5 197.3 257.3 196 258.8L196 258.8z" style="clip-rule:evenodd;fill-rule:evenodd;fill:#FFF"/>
      <path d="M274.5 238.9c-3.6 9.1-5.1 17.2-5.4 21.1 1.4-2.8 4.2-12 8.5-21.5C279.4 234.6 274.9 238 274.5 238.9L274.5 238.9z" style="clip-rule:evenodd;fill-rule:evenodd;fill:#FFF"/>
      <path d="M227.7 251.2c-8.8 16.7-20.7 30.9-28.4 35.2 6.2-5.7 13.5-13.6 24.3-33.2C224.2 252.1 229.1 248.6 227.7 251.2L227.7 251.2z" style="clip-rule:evenodd;fill-rule:evenodd;fill:#FFF"/>
      <path d="M253.4 244.9c-4 14.7-14.5 33.2-18.3 39.9 3.4-9.5 9.5-21.1 15-38.8C250.3 245.1 254.6 240.4 253.4 244.9L253.4 244.9z" style="clip-rule:evenodd;fill-rule:evenodd;fill:#FFF"/>
      <path d="M200.5 257.1c-8.3-2.6-22.2-10.7-36.7-20.3 24.6 12.2 35.8 17.3 39.4 18.6C210.3 257.9 202.8 257.8 200.5 257.1L200.5 257.1z" style="clip-rule:evenodd;fill-rule:evenodd;fill:#FFF"/>
      <path d="M296.2 232.8C234.8 254.4 182 264.5 133.3 268c54.8-7.1 104.8-19.2 158.7-38.7 9-3.2 22.8-9.7 29.8-16.2 1.8-1.7 2.5-2.9 4.2-2.3 1.7 0.6 3.5 2 4.1 3.5 0.5 1.3 0.2 2.7-1.8 3.9C319.2 223.7 305.7 229.4 296.2 232.8L296.2 232.8z" style="clip-rule:evenodd;fill-rule:evenodd;fill:#FFF"/>
    </g>
  </g>

  <g class="p_leaf">
    <path d="M-89.5 679.1c-9.6 5.3-26.4 30.7-13.1 41.8 -8.1 12.3-2.4 31.2 5.1 33.2 6.9 28.6 17.7 15.3 20.3 19.5 2.8 4.5 7.6 8.1 12.7 10.2 4.1 1.7 5.4-1.4 13.5-1.7 6-0.2 15.7 10.7 21 8.7 3.1-1.1 7.2-7.4 15.3-7.6 9-0.3 13.8 4.5 19.2 3.1 10-2.5 8.9-10.1 17.4-14.1 7.5-3.5 10.2 0 19.6-3.1 5.9-1.9 13.6-19.5 32.7-23.1 -16.8-17.1-7.4-25.6-10.4-33.7 -1.4-3.9-7.7-6.6-9.5-11.8 -1.8-5.4 2-10.3-1-17.4 -3.4-8.2-9.7-5.8-13.2-10.7 -4.5-6.4 2.9-16.2-12.1-24.4 -8.2-4.5-12.4-3.2-14.8-14 -1.2-5.6-6.7-7.7-12.6-8.4 -7.8-1-17.4 1.7-22.1 2.1 -3.5-10.3-24.4-5-39.7 12.8C-72.3 633.5-91.1 661.6-89.5 679.1L-89.5 679.1z" style="clip-rule:evenodd;fill-rule:evenodd;fill:#FFF"/>
    <g>
      <path d="M18.4 728.8c3.7 7.2 10 16.9 15.1 23.3 -5.2-2.6-15.3-14.8-19.3-24.5C12.3 723.2 17.9 727.7 18.4 728.8L18.4 728.8z" style="clip-rule:evenodd;fill-rule:evenodd;fill:#F4CD2A"/>
      <path d="M12.2 723.5c8.7-6.1 27.3-9.3 32.8-9.1 -7 2-20.9 6.5-26.9 10.6C14.3 727.7 9.4 725.5 12.2 723.5L12.2 723.5z" style="clip-rule:evenodd;fill-rule:evenodd;fill:#F4CD2A"/>
      <path d="M-40.8 700.6c19.3-10.4 42.4-15.2 64.8-13.3 -24.5 2.5-44.3 9-60.9 15.9C-38.6 703.8-46.2 703.5-40.8 700.6L-40.8 700.6z" style="clip-rule:evenodd;fill-rule:evenodd;fill:#F4CD2A"/>
      <path d="M5.1 656.2c-32.9-1.6-61.6 7.6-82.7 25.2 -2.2 1.8 2.3 3.8 2.5 3.6C-58.7 670.9-30.4 658.8 5.1 656.2L5.1 656.2z" style="clip-rule:evenodd;fill-rule:evenodd;fill:#F4CD2A"/>
      <path d="M-34.4 704.4c7.8 21 18.3 40.2 28.7 57 -9.4-9.9-25.8-32.5-33.3-58.2C-39.6 701.1-35 702.7-34.4 704.4L-34.4 704.4z" style="clip-rule:evenodd;fill-rule:evenodd;fill:#F4CD2A"/>
      <path d="M-117.5 652.9c8.6 6.9 19.1 14.6 23.6 17.4 24 14.9 50.6 29 72.6 38.6 36.5 16 51.4 21.7 81.6 33.5 -26.2-7.5-54-15.2-82.9-27.7 -18.1-7.8-47.9-21-73.3-36 -8.3-4.9-22.9-12.7-29.7-17.9C-126.3 660.1-126 646.1-117.5 652.9L-117.5 652.9z" style="clip-rule:evenodd;fill-rule:evenodd;fill:#F4CD2A"/>
      <path d="M-83.3 684.5c5.9 26.3 19 59.9 33.8 75.2 -12.3-19.6-24-51.2-28.7-73C-79.3 681.4-84.8 678.2-83.3 684.5L-83.3 684.5z" style="clip-rule:evenodd;fill-rule:evenodd;fill:#F4CD2A"/>
    </g>
  </g>

  <g class="p_leaf">
    <path d="M-76.4 203.1c-10.5 66 36.3 42.9 37.6 38.3 4.8 41.7 65 17.5 45.8-14.1 20.8 0.2 27.4-20.6 10.4-47.9 39.1-3.9 12.1-37.8-6.1-51.3 -4.7-3.5-0.5-2.4 4-4.3 8.3-3.5 11.1-9.1 9.4-15.1 -3-10.5-19.7-22.3-43.8-27 -8.3-1.6-4.7-2.4 0.8-7.1 6.4-5.5 6.5-9.2 4.6-12.5 -4.3-7.6-24.9-11.8-33.2-10.9 -9.3 1.1-10.8-6.2-8.6-9.2 8.8-11.9-18.3-18.7-24.3-20.6 -13.7-4.4-27-8.1-30.2-6.4 -17 9.2-17.3 54.5-2.8 52.9 6.2-0.7 12.1-7.1 4 10.4 -7 15-22.1 36.4-9.3 47.8 4.6 4.1 11.9 3.8 17.4-0.2 6.4-4.6 7.4-2.8 6.1 3.9 -4.1 21.3-21.3 47.7-8.5 67.9 5.2 8.2 14.2 8.4 20.5 4.1C-79.7 199.8-75.3 196.4-76.4 203.1L-76.4 203.1z" style="clip-rule:evenodd;fill-rule:evenodd;fill:#29F4A2"/>
    <g>
      <path d="M-85.1 60.3c-0.4 7.8-6.5 22.2-16.5 34.3 9.4-18.1 11.9-28.5 13.4-36.6C-86.9 51.1-85.1 59.6-85.1 60.3L-85.1 60.3z" style="clip-rule:evenodd;fill-rule:evenodd;fill:#FFF"/>
      <path d="M-63 103.6c-0.8 8.5-6.2 27.7-18.1 53 10.2-30.3 14-47.6 15.1-56C-64.6 90.7-63 103.6-63 103.6L-63 103.6z" style="clip-rule:evenodd;fill-rule:evenodd;fill:#FFF"/>
      <path d="M-39.3 158c13.7 8.7 34.6 28.8 42 40.1 -4.2-5.1-20.4-20.1-39.3-33.9C-39 162.4-41.6 156.5-39.3 158L-39.3 158z" style="clip-rule:evenodd;fill-rule:evenodd;fill:#FFF"/>
      <path d="M-83.7 57.7c12.9 2.8 24.1 2.9 29.4 2.5 -4-1.3-16.9-2.9-30.6-6.5C-90.5 52.2-85 57.4-83.7 57.7L-83.7 57.7z" style="clip-rule:evenodd;fill-rule:evenodd;fill:#FFF"/>
      <path d="M-56.7 117.3c24.2 8 45.9 20.6 53.3 29.9 -9.1-7-21.2-15-49.8-24.9C-54.6 121.9-60.4 116.1-56.7 117.3L-56.7 117.3z" style="clip-rule:evenodd;fill-rule:evenodd;fill:#FFF"/>
      <path d="M-70.9 84.6c20.5 2 47.5 11.8 57.3 15.4 -13.4-2.3-30.4-7.9-55.2-11.2C-70 88.6-77.2 83.9-70.9 84.6L-70.9 84.6z" style="clip-rule:evenodd;fill-rule:evenodd;fill:#FFF"/>
      <path d="M-42.7 152.3c-1.6 11.6-9.3 32-18.8 53.5 10.8-35.6 15-51.7 15.9-56.8C-43.7 139.1-42.2 149.1-42.7 152.3L-42.7 152.3z" style="clip-rule:evenodd;fill-rule:evenodd;fill:#FFF"/>
      <path d="M-96.8 30.2c42.7 77 68.1 145.1 83.8 209.2C-34.9 168-62.3 103.9-100.4 36.5c-6.3-11.2-18.1-28.2-28.4-36.1 -2.6-2-4.4-2.7-4-5.1 0.4-2.4 1.8-5.1 3.7-6.3 1.6-1 3.6-0.9 5.6 1.5C-114.1 1.5-103.4 18.3-96.8 30.2L-96.8 30.2z" style="clip-rule:evenodd;fill-rule:evenodd;fill:#FFF"/>
    </g>
  </g>

  <g class="p_leaf">
    <g>
      <path d="M46.4 130.7c-9.8 0-16.5-8.3-20.9-13.8 -1-1.3-2.3-2.8-3.1-3.6 -0.3 1-0.6 3.1-0.8 7.8l-0.1 2.4 -2.3-0.5c-20.6-4.5-31.6-19.1-37.2-30.6C-28.1 71.5-28.5 44.2-19 24.3 -5.1-4.6 20.1-21.1 50.2-21.1c13.5 0 27.3 3.5 39.9 10.1L94-9l-4.1 1.5c-4.6 1.7-6 2.8-6.5 3.2 0.9 0.8 4.1 2.1 6.5 3 7 2.7 16.6 6.5 17.6 14.4l0.2 1.2 -1 0.7c-4.7 3.1-4.8 4.5-4.8 4.7 0.1 1.1 3.8 3 6.8 4.5 5.2 2.6 11.7 5.8 16.5 11.6l1.6 1.9 -2.2 1.1c-6 2.9-6.2 4.3-6.2 4.5 0 0.9 3.1 2.9 5.1 4.1 3.7 2.3 8.4 5.3 11 9.7l1.5 2.6 -3 0.3c-0.9 0.1-1.6 0.3-1.7 0.6 -0.9 2 4.1 8.9 6.6 12.3 3.3 4.6 4.8 6.7 4.4 8.5 -0.2 0.7-0.6 1.3-1.2 1.6l-0.5 0.3 -0.6-0.1c-1-0.1-1.9-0.1-2.8-0.1 -3.2 0-3.8 0.7-3.8 0.7 -0.6 1.3 4.1 7 6.8 10.5 6.3 7.8 14.2 17.4 12.3 25.9l-0.6 2.8 -2.4-1.6c-5.7-3.8-16.5-7.9-23.5-7.9 -2.5 0-4.3 0.5-5.1 1.5 -0.6 0.7-0.9 1.8-0.7 3.2l0.3 2.7 -2.7-0.6c-3.4-0.7-6.8-1.8-10-2.7 -4.3-1.3-8.4-2.5-10.9-2.5 -0.5 0-1.5 0.1-1.8 0.5 -0.2 0.3-0.7 1.5 0.9 5.8l0.4 1.1 -0.8 0.9c-1.6 1.7-3.6 2.5-6 2.5 -4.2 0-8.6-2.8-12.2-5.1 -1.1-0.7-2.6-1.6-3.6-2.1 0.1 0.9 0.4 2.6 1.4 5.8l0.7 2.1 -2.1 0.4c-1.3 0.3-2.6 0.4-3.9 0.4 -6.1 0-11.6-2.6-15.7-4.6 -1-0.5-2.1-1-2.9-1.3 0.2 0.9 0.8 2.6 2 5.4l0.8 2 -2 0.7C50.1 130.4 48.2 130.7 46.4 130.7z" style="clip-rule:evenodd;fill-rule:evenodd;fill:#29F4A2"/>
      <path d="M50.2-19.2c13.2 0 26.6 3.4 39 9.9 -24.1 9 14.4 8.1 16.3 22.7 -16.3 10.9 6.7 9.8 18 23.6 -18.3 8.9 2.6 10.1 9 21.1 -12 1.1 10.1 21.7 7.3 23.3 -1.1-0.1-2.1-0.1-2.9-0.1 -19.5 0 16.9 22.8 13.5 38.6 -5.7-3.8-17-8.2-24.6-8.2 -4.9 0-8.4 1.8-7.8 6.9 -8.2-1.8-16.6-5.3-21.3-5.3 -3.7 0-5.2 2.1-2.7 8.9 -1.3 1.4-2.9 1.9-4.6 1.9 -6.1 0-13.7-7.4-16.6-7.4 -1.5 0-1.7 2.1 0.4 8.6 -1.2 0.2-2.3 0.4-3.5 0.4 -8.8 0-16.9-6.2-19.7-6.2 -1.6 0-1.4 2 1.3 8.5 -1.7 0.6-3.4 0.8-5 0.8 -13.3 0-20.9-17.8-24.4-17.8 -1.4 0-2.1 2.7-2.3 10.2 -41.5-9.1-52.3-64-36.9-95.9C-2.7-5 23.3-19.2 50.2-19.2M50.2-23.1c-14.5 0-28.5 4-40.4 11.4C-3.1-3.6-13.4 8.3-20.7 23.5c-9.8 20.4-9.3 48.4 1.1 69.8 8.3 17 21.6 27.9 38.5 31.6l4.6 1 0.1-4.7c0-1.3 0.1-2.4 0.2-3.3 0.1 0.1 0.1 0.2 0.2 0.3 4.7 5.8 11.7 14.5 22.4 14.5 2 0 4.1-0.3 6.1-1l4.1-1.3 -1.7-4c-0.1-0.3-0.3-0.6-0.4-0.9 3.9 1.8 9.3 4.1 15.2 4.1 1.5 0 2.9-0.1 4.3-0.4l4.3-0.9 -1.3-4.1c-0.1-0.4-0.3-0.8-0.4-1.2 3.7 2.3 8.2 5.1 12.8 5.1 2.9 0 5.4-1.1 7.4-3.1l1.7-1.8 -0.8-2.3c-0.7-1.9-0.9-3-1-3.7 0 0 0 0 0 0 2.2 0 6.2 1.2 10.3 2.4 3.1 0.9 6.7 2 10.2 2.8l5.3 1.2 -0.6-5.4c0-0.4-0.1-1.3 0.2-1.7 0.3-0.4 1.5-0.8 3.7-0.8 6.6 0 17.1 4 22.4 7.6l4.8 3.2 1.2-5.6c2.1-9.4-6.1-19.5-12.7-27.6 -2-2.4-4.8-5.9-5.9-7.9 0.4 0 0.8-0.1 1.4-0.1 0.8 0 1.6 0 2.6 0.1l1.2 0.1 1-0.6c1.1-0.6 1.9-1.7 2.1-2.9 0.6-2.7-1.2-5.2-4.7-10.1 -1.7-2.3-5.4-7.4-6.1-9.8l6-0.5 -3.1-5.3c-2.8-4.9-7.7-8-11.6-10.4 -1.2-0.8-2.8-1.8-3.7-2.5 0.7-0.5 2-1.4 4.6-2.7l4.5-2.2 -3.1-3.8c-5-6.1-12-9.6-17.1-12.1 -1.8-0.9-4.2-2.1-5.3-2.9 0.5-0.5 1.5-1.5 3.6-2.9l2-1.3 -0.3-2.4C108.3 3.9 98.1-0.1 90.6-3c-1-0.4-2.2-0.8-3.2-1.3 0.8-0.4 1.8-0.8 3.2-1.3l8.2-3.1 -7.7-4.1C78.2-19.5 64-23.1 50.2-23.1L50.2-23.1z" fill="#010101"/>
    </g>
    <g>
      <path d="M128.2 100.6C105.2 74.3 47.9 39.4-4 22.4c-21.9-7.2-42.7-10.1-59.8-9.4 -10.8 0.4-3.7 11.9 1.3 11.9 1.4-0.5 5-1.2 6.5-1.5 16.2-3.8 32.1 0.5 49 4.8C37.6 39.6 96.5 75.3 128.2 100.6L128.2 100.6z" style="clip-rule:evenodd;fill-rule:evenodd;fill:#010101"/>
      <path d="M9.5 29.8C23.2 27.4 47.1 16.6 59 3.9 45.6 13.3 23 22.5 7.8 26.1 -1.8 28.3 9.2 29.8 9.5 29.8L9.5 29.8z" style="clip-rule:evenodd;fill-rule:evenodd;fill:#010101"/>
      <path d="M4.7 29.8c7.5 13.7 10.2 36.7 5.8 52.2C11.2 67 7.5 47.6 0 29.7 -3 22.8 4.5 29.5 4.7 29.8L4.7 29.8z" style="clip-rule:evenodd;fill-rule:evenodd;fill:#010101"/>
      <path d="M44 44c14.7-1.2 34.4-10.3 44.2-21.9 -12.2 8.7-29.7 15.9-46 18.9C33.8 42.5 41.2 44.2 44 44L44 44z" style="clip-rule:evenodd;fill-rule:evenodd;fill:#010101"/>
      <path d="M33.8 42.4c6 16.3 10 35.5 14.3 52.7 0.4-12.5-2.5-35.7-10-52.2C36.7 39.9 31.6 36.5 33.8 42.4L33.8 42.4z" style="clip-rule:evenodd;fill-rule:evenodd;fill:#010101"/>
      <path d="M74.5 60.7c8.6 1.6 22.2-2.4 30.5-9.4 -7 3.9-19.7 6.5-31.6 6.5C67.2 57.7 71.9 60.2 74.5 60.7L74.5 60.7z" style="clip-rule:evenodd;fill-rule:evenodd;fill:#010101"/>
      <path d="M64.5 57.8c3.7 7.7 11.1 27 15.3 38.2 -0.1-9.9-5.6-26.8-10.4-36.7C67.9 56.4 62.5 53.7 64.5 57.8L64.5 57.8z" style="clip-rule:evenodd;fill-rule:evenodd;fill:#010101"/>
    </g>
  </g>

  <g class="p_leaf">
    <path d="M14 277c-3-7.2-1.1-28.7 11.2-29.1 0.9-10.4 12.4-18.5 17.5-16.2 16.5-12.9 16.6-0.7 19.9-1.9 3.5-1.3 7.8-1.2 11.6-0.1 3 0.9 2.4 3.1 6.8 6.9 3.3 2.8 13.5 1 15.6 4.4 1.2 2 0.7 7.3 5.2 11 4.9 4.1 9.7 3.6 12.1 6.8 4.4 5.8 0.5 9.6 3.5 15.6 2.6 5.3 5.7 4.5 9.6 10.4 2.4 3.7-1 16.9 8 27.3 -16.9 2.1-15.4 11-20.7 14.2 -2.5 1.5-7.2 0.3-10.5 2.4 -3.4 2.2-3.4 6.6-8.3 9.3 -5.5 3-8-1.1-12.1 0.1 -5.3 1.5-5.6 10.3-17.5 8.3 -6.5-1.1-8.3-3.7-14.4 1.3 -3.2 2.6-7.1 1.3-10.7-0.9 -4.8-2.9-9-8.7-11.4-10.9 -6.5 4.2-15.8-8-16.4-24.6C3.4 310 5.3 286.1 14 277L14 277z" style="clip-rule:evenodd;fill-rule:evenodd;fill:#FFF"/>
    <g>
      <path d="M96 297c5.3-2.4 13-5 18.7-6.3 -4.1-0.9-15.1 1.5-21.6 5.1C90.1 297.4 95.2 297.4 96 297L96 297z" style="clip-rule:evenodd;fill-rule:evenodd;fill:#29F4A2"/>
      <path d="M90.2 297.2c2.1 7.3 11.1 17.3 14.2 19.5 -3-4.2-8.8-12.8-10.3-17.8C93.2 295.8 89.5 294.9 90.2 297.2L90.2 297.2z" style="clip-rule:evenodd;fill-rule:evenodd;fill:#29F4A2"/>
      <path d="M50.6 286.6c6.2 14.3 16.9 27.2 30.2 36 -12.5-12.2-20.7-24.6-26.9-35.8C53.2 285.7 48.9 282.6 50.6 286.6L50.6 286.6z" style="clip-rule:evenodd;fill-rule:evenodd;fill:#29F4A2"/>
      <path d="M56.5 331.6c-19-13.7-31-31.5-35-50.6 -0.4-2 3-1.1 3-0.9C27.5 295.2 37.9 314.4 56.5 331.6L56.5 331.6z" style="clip-rule:evenodd;fill-rule:evenodd;fill:#29F4A2"/>
      <path d="M55.9 287.3c13.6-8.3 28-14.3 41.2-19.1 -9.6 1.3-28.7 6.7-44.2 17.7C51.5 286.8 54.7 287.9 55.9 287.3L55.9 287.3z" style="clip-rule:evenodd;fill-rule:evenodd;fill:#29F4A2"/>
      <path d="M-13.2 279.2c7.8 0 17.1 0.3 20.8 0.7 19.9 2.3 41 6.2 57.5 10.6 27.4 7.3 38.2 10.6 60.3 17.4 -17.9-7.4-36.8-15.4-58.4-21.2 -13.5-3.6-36-9.5-56.7-12.3 -6.8-0.9-18.4-3-24.4-3.1C-14.9 271.3-20.9 279.3-13.2 279.2L-13.2 279.2z" style="clip-rule:evenodd;fill-rule:evenodd;fill:#29F4A2"/>
      <path d="M19.8 276.7c14.9-12 37-25 52.1-26.9 -15.5 5.5-36 17.9-48.2 28C20.7 280.2 16.2 279.6 19.8 276.7L19.8 276.7z" style="clip-rule:evenodd;fill-rule:evenodd;fill:#29F4A2"/>
    </g>
  </g>

  <g class="p_leaf">
    <path d="M-28.2 472.6c25.5-42.3-13-39.5-15.1-36.6 8.3-29.9-39.7-30-35.3-3 -14.2-5.9-24.5 6.5-20.4 29.9 -27.8-8.1-18.8 22.5-10 36.8 2.3 3.7-0.3 1.8-3.9 1.8 -6.7 0.1-10.1 3.1-10.6 7.7 -0.9 8 7.3 20.8 22.6 30.7 5.3 3.4 2.6 2.9-2.5 4.6 -5.9 2-7 4.5-6.6 7.3 0.8 6.4 13.8 15 19.7 16.7 6.7 1.8 5.7 7.3 3.4 8.7 -9.3 5.7 7.3 17.9 10.9 20.9 8.2 6.9 16.2 13.1 18.9 12.8 14.2-1.6 27-32.5 16.6-35.5 -4.4-1.2-10.2 1.5 0.2-8.2 9-8.4 25.2-18.8 19.6-30.2 -2-4.1-7.1-5.9-12-4.7 -5.6 1.4-5.8-0.1-3.1-4.4 8.7-13.5 27.8-26.8 24.7-44.2 -1.3-7.1-7.4-9.7-12.9-8.5C-26.8 475.8-30.8 476.9-28.2 472.6L-28.2 472.6z" style="clip-rule:evenodd;fill-rule:evenodd;fill:#F4CD2A"/>
    <g>
      <path d="M-61.8 572.9c2.4-5.2 10.6-13.4 20.8-18.9 -11.5 9.8-16 16.2-19.3 21.3C-63.2 579.6-62 573.3-61.8 572.9L-61.8 572.9z" style="clip-rule:evenodd;fill-rule:evenodd;fill:#29F4A2"/>
      <path d="M-64.9 537c2.9-5.6 11.9-17.3 27.1-31.3 -15.4 17.9-22.8 28.7-25.9 34.2C-67.5 546.4-65 537.1-64.9 537L-64.9 537z" style="clip-rule:evenodd;fill-rule:evenodd;fill:#29F4A2"/>
      <path d="M-66.1 493.2c-6.9-9.8-15.7-29.4-17.7-39.1 1.5 4.7 8.4 19.4 17.5 34.1C-65.1 490.1-65 494.9-66.1 493.2L-66.1 493.2z" style="clip-rule:evenodd;fill-rule:evenodd;fill:#29F4A2"/>
      <path d="M-63.5 574.3c-8.1-5.5-15.7-8.7-19.4-9.8 2.4 2 10.8 6.7 19.2 12.9C-60.4 579.9-62.7 574.8-63.5 574.3L-63.5 574.3z" style="clip-rule:evenodd;fill-rule:evenodd;fill:#29F4A2"/>
      <path d="M-65.5 525.9c-14.4-12.2-25.7-26.9-28.2-35.3 4.3 7.3 10.4 16.1 27.2 30.9C-65.7 522.2-63.3 527.8-65.5 525.9L-65.5 525.9z" style="clip-rule:evenodd;fill-rule:evenodd;fill:#29F4A2"/>
      <path d="M-64.8 552.3c-13.5-7-29.3-21.3-35-26.5 8.5 5.3 18.6 13.9 34.7 23C-64.4 549.3-60.7 554.5-64.8 552.3L-64.8 552.3z" style="clip-rule:evenodd;fill-rule:evenodd;fill:#29F4A2"/>
      <path d="M-65.4 498c4.4-7.5 15.2-19.4 27.7-31.5C-55 488-62.3 497.9-64.4 501.1 -68.3 507.4-66.6 500.1-65.4 498L-65.4 498z" style="clip-rule:evenodd;fill-rule:evenodd;fill:#29F4A2"/>
      <path d="M-62.2 596.7c-7.9-64.6-6.4-118.3 0.6-166.6 -4.8 55-3.8 106.5 3.7 163.3 1.2 9.4 4.6 24.4 9.4 32.6 1.2 2.1 2.3 3.1 1.3 4.6 -1 1.5-2.7 3-4.3 3.3 -1.4 0.3-2.7-0.4-3.5-2.6C-58.3 621.2-61 606.7-62.2 596.7L-62.2 596.7z" style="clip-rule:evenodd;fill-rule:evenodd;fill:#29F4A2"/>
    </g>
  </g>

  <g class="p_leaf">
    <path d="M39.2 299.3c40.4-10.6 15.4-31.6 12.4-31.1 22.7-13.3-6.4-41.6-19.6-22.6 -5.1-11.9-18.7-10.5-30 6.2 -12.1-21.3-24.7 2.6-27.8 16.4 -0.8 3.6-1.2 0.9-3.4-1.2 -4.1-3.9-8-4-11-1.5 -5.2 4.4-7.8 16.9-4.4 31.9 1.2 5.2-0.2 3.3-4.3 1.3 -4.8-2.3-6.9-1.4-8.3 0.6 -3.3 4.4-0.5 17.2 2.2 21.7 3 5-0.8 7.8-3.1 7.3 -9-2-6.1 15.1-5.7 19.1 0.9 9 2.2 17.5 3.9 18.9 9.6 7.4 35.5-3.9 30.9-11.8 -1.9-3.4-7.1-5.1 4.9-4.9 10.3 0.2 26.4 3.4 29.7-6.8 1.2-3.7-0.8-7.8-4.5-9.9 -4.3-2.5-3.5-3.5 0.7-4.5 13.2-3 32.6 0.1 41-12.3 3.4-5 1.2-10.2-2.8-12.7C38.1 302 35.1 300.4 39.2 299.3L39.2 299.3z" style="clip-rule:evenodd;fill-rule:evenodd;fill:#29F4A2"/>
    <g>
      <path d="M-40.3 340.3c4.5-1.8 14.3-1.9 23.8 0.8 -12.7-0.8-19.3 0.4-24.3 1.5C-45.1 343.6-40.7 340.4-40.3 340.3L-40.3 340.3z" style="clip-rule:evenodd;fill-rule:evenodd;fill:#FFF"/>
      <path d="M-21.1 316.7c5.1-1.7 17.4-3.5 34.8-3 -19.9 1.8-30.7 4-35.8 5.5C-28.1 320.9-21.1 316.7-21.1 316.7L-21.1 316.7z" style="clip-rule:evenodd;fill-rule:evenodd;fill:#FFF"/>
      <path d="M4 289.5c1.5-10 7.8-27.1 12.3-34.1 -1.9 3.7-6.4 16.7-9.4 31C6.5 288.2 3.7 291.2 4 289.5L4 289.5z" style="clip-rule:evenodd;fill-rule:evenodd;fill:#FFF"/>
      <path d="M-42.1 340.2c-1.7-8.1-4.4-14.5-6-17.4 0.3 2.6 2.6 10.4 4 19.1C-43.6 345.4-42 340.9-42.1 340.2L-42.1 340.2z" style="clip-rule:evenodd;fill-rule:evenodd;fill:#FFF"/>
      <path d="M-14.9 309.7c-1.6-15.9 0.2-31.5 3.7-38 -1.7 6.9-3.2 15.9-1.7 34.8C-12.8 307.3-14.6 312.1-14.9 309.7L-14.9 309.7z" style="clip-rule:evenodd;fill-rule:evenodd;fill:#FFF"/>
      <path d="M-30 326.1c-4-12.2-5.2-30.1-5.6-36.7 2 8.2 3.1 19.4 7.5 34.4C-27.9 324.5-28.8 329.8-30 326.1L-30 326.1z" style="clip-rule:evenodd;fill-rule:evenodd;fill:#FFF"/>
      <path d="M1.6 292.8c7.1-2 20.6-2.8 35.3-2.8 -23 2.8-33.3 4.5-36.5 5.2C-5.7 296.8-0.3 293.4 1.6 292.8L1.6 292.8z" style="clip-rule:evenodd;fill-rule:evenodd;fill:#FFF"/>
      <path d="M-54.5 354.5c33.2-43.8 65.7-75.5 98.4-100.7C8.6 284.4-21.1 316.2-50 355c-4.8 6.5-11.6 17.5-13.5 25.3 -0.5 2-0.4 3.2-1.9 3.6 -1.5 0.4-3.4 0.2-4.5-0.5 -1-0.7-1.4-1.8-0.6-3.6C-66.6 371.7-59.7 361.3-54.5 354.5L-54.5 354.5z" style="clip-rule:evenodd;fill-rule:evenodd;fill:#FFF"/>
    </g>
  </g>

  <g class="p_leaf">
    <path d="M133.9 208.8c9.6-5.4 26.3-31.3 12.8-42.4 8-12.5 2.1-31.6-5.5-33.5 -7.3-28.8-18.1-15.3-20.8-19.5 -2.9-4.5-7.7-8.1-12.9-10.2 -4.2-1.7-5.4 1.5-13.7 1.8 -6.1 0.3-16-10.6-21.3-8.6 -3.1 1.2-7.2 7.5-15.4 7.9 -9 0.4-14-4.3-19.5-2.9 -10 2.7-8.9 10.3-17.5 14.5 -7.5 3.6-10.3 0.2-19.8 3.3 -5.9 2-13.5 19.8-32.8 23.7 17.2 17.1 7.8 25.8 10.9 34 1.5 3.9 7.9 6.6 9.7 11.9 1.9 5.4-1.9 10.4 1.2 17.6 3.6 8.2 9.9 5.7 13.5 10.7 4.7 6.4-2.7 16.4 12.5 24.6 8.3 4.4 12.6 3.1 15.1 14 1.3 5.7 6.9 7.7 12.8 8.4 7.9 0.9 17.6-1.9 22.3-2.3 3.7 10.4 24.7 4.8 39.9-13.4C117 255.1 135.7 226.5 133.9 208.8L133.9 208.8z" style="clip-rule:evenodd;fill-rule:evenodd;fill:#F4CD2A"/>
    <g>
      <path d="M24.2 159.8c-3.9-7.2-10.3-17-15.5-23.3 5.3 2.5 15.6 14.8 19.8 24.5C30.5 165.4 24.8 160.9 24.2 159.8L24.2 159.8z" style="clip-rule:evenodd;fill-rule:evenodd;fill:#29F4A2"/>
      <path d="M30.6 165.1c-8.7 6.3-27.5 9.7-33 9.5 7.1-2.1 21.1-6.8 27-11C28.5 160.9 33.4 163 30.6 165.1L30.6 165.1z" style="clip-rule:evenodd;fill-rule:evenodd;fill:#29F4A2"/>
      <path d="M84.4 187.7c-19.4 10.7-42.7 15.9-65.3 14.1 24.7-2.8 44.7-9.5 61.4-16.7C82.2 184.4 89.8 184.7 84.4 187.7L84.4 187.7z" style="clip-rule:evenodd;fill-rule:evenodd;fill:#29F4A2"/>
      <path d="M38.5 233c33.3 1.2 62.2-8.4 83.3-26.4 2.2-1.8-2.4-3.8-2.6-3.6C102.8 217.5 74.4 230 38.5 233L38.5 233z" style="clip-rule:evenodd;fill-rule:evenodd;fill:#29F4A2"/>
      <path d="M77.9 183.8c-8.1-21.2-19-40.4-29.6-57.3 9.7 9.9 26.5 32.5 34.3 58.4C83.2 187.1 78.5 185.6 77.9 183.8L77.9 183.8z" style="clip-rule:evenodd;fill-rule:evenodd;fill:#29F4A2"/>
      <path d="M162.4 235c-8.8-6.8-19.5-14.6-24.1-17.3C114 202.8 87 188.9 64.6 179.5c-37.1-15.7-52.2-21.4-82.9-32.9 26.5 7.2 54.7 14.7 84.1 27.1 18.3 7.7 48.7 20.7 74.5 35.6 8.4 4.8 23.3 12.6 30.2 17.8C171.3 227.6 171.1 241.7 162.4 235L162.4 235z" style="clip-rule:evenodd;fill-rule:evenodd;fill:#29F4A2"/>
      <path d="M127.6 203.4c-6.3-26.5-19.8-60.3-35-75.6 12.6 19.7 24.9 51.4 29.8 73.4C123.5 206.6 129.1 209.8 127.6 203.4L127.6 203.4z" style="clip-rule:evenodd;fill-rule:evenodd;fill:#29F4A2"/>
    </g>
  </g>

  <g class="p_leaf">
    <g>
      <path d="M130.4 269.6c0.5-5.2 1.8-10 3.1-14.6 2.9-10.4 5.1-18.7-3.8-25.9l-1.3-1 1-1.3c8.6-10.4 11.8-20.1 8.8-26.4 -2.2-4.6-7.3-7.1-14.6-7.1 -3.5 0-7.3 0.6-11.3 1.7l-2.8 0.8 0.8-2.8c2-7.4 11.8-17.3 22.2-27.7 11.2-11.2 23.9-24 20.6-29 -1.8-2.2-6.6-4.7-19.4-4.7 -4.7 0-10.3 0.4-16.6 1l-2.2 0.2 0.5-2.2c3.6-16.8-6.8-20-18.9-23.7 -9.6-3-19.6-6-21.1-17l-0.3-2.3 2.2 0.5c1.1 0.2 2.1 0.3 3.2 0.3 12 0 19.1-15.7 21-26.3l0.2-1.3 1.4 0c13.4-0.1 22-1.6 26.9-4.9 5.6-3.8 14.2-15.2 14.4-23.2 0.1-2.5-0.7-4.4-2.3-5.6l-2.4-1.8 2.8-1c3.7-1.3 7.3-2 11-2 6.9 0 13.9 2.3 21.6 5.1 1.1 0.4 2.2 0.8 3.4 1.2 6.3 2.3 14.2 5.2 21.1 6.2 1.1 0.2 2.1 0.2 3.2 0.2 5.9 0 11-2.3 12.9-6 1.7-3.1 1-7.1-1.8-11.5l-1-1.6 1.7-0.8c1.8-0.9 3.9-1.3 6.3-1.3 11.1 0 27.4 10 35.7 28.5 2.1 4.7 6.5 6.4 9.9 6.4 2.1 0 4.1-0.6 5.2-1.7l1.3-1.2 1.1 1.5c8.6 11.8 8 26.6-1.5 40.9 3.5-0.6 6.8-0.9 10-0.9 7.2 0 13.8 1.5 19.4 4.6 14.8 7.9 19.3 15.8 24.1 24.2 2.4 4.2 4.9 8.5 8.8 13.3l2.3 2.8 -3.6-0.1c-0.4 0-0.9-0.1-2-0.3 -1.9-0.3-5.1-0.9-7.9-0.9 -3 0-4.2 0.7-4.5 1.1 -2.5 2.6 0.1 6 4.3 10.9 1.4 1.6 2.7 3.2 3.7 4.7 7.2 11.3 16.4 38.2 19 55.3l0.5 3.2 -2.8-1.5c-7.5-3.9-14.1-5.9-19.6-5.9 -2.2 0-4.3 0.3-6.3 1 -6.2 4.1-8.9 13.6-8.1 28.1l0 0.9 -0.7 0.5c-14.5 11.1-19.8 17.4-13.9 35.7l0.9 2.8 -2.8-0.7c-10.3-2.5-16.3-12.8-21.6-21.9 -4.6-7.9-8.6-14.7-14-14.7 -2 0-4.2 0.9-6.8 2.8l-1.7 1.3 -0.8-2c-0.3-0.8-0.7-1.7-1-2.5 -1.9-4.8-3.7-9.4-3.9-13.7 -0.5-11.7-3.1-12-3.4-12 -1.6 0-5.2 3.2-9.7 12.4 -2.8 5.7-5 11.3-7.2 16.8 -2.9 7.3-5.8 14.8-10.2 22.6l-1.6 2.8 -1.3-2.9c-5.1-11.1-11.3-17-17.8-17 -5.5 0-11.4 4.1-17.4 12.3l-0.6 0.8 -1-0.1c-1.6-0.2-3.2-0.3-4.8-0.3 -12 0-21.4 7.4-35.5 19.6l-3.1 2.7L130.4 269.6z" style="clip-rule:evenodd;fill-rule:evenodd;fill:#29F4A2"/>
      <path d="M220.8 15.4c10.7 0 26.3 10 34.2 27.6 2.3 5.1 7.2 7.3 11.4 7.3 2.5 0 4.9-0.8 6.3-2.1 8.3 11.4 8.1 26.7-4 42.4 4.9-1.1 9.4-1.6 13.7-1.6 7 0 13.2 1.5 18.7 4.4 21.5 11.5 20.5 22.6 32.5 37.1 -0.9 0-5.8-1.2-10-1.2 -2.4 0-4.6 0.4-5.7 1.6 -5 5.1 4.2 12.2 7.7 17.6 6.9 10.8 16.2 37.3 18.8 54.6 -7.8-4-14.6-6-20.4-6 -2.5 0-4.8 0.4-7 1.1 -6.9 4.4-9.9 14.3-9 29.7 -15.3 11.7-20.6 18.7-14.4 37.5 -18.4-4.5-22.7-36.7-36-36.7 -2.3 0-4.8 0.9-7.7 3.1 -2.2-5.7-4.6-10.9-4.8-15.7 -0.4-9.5-2.4-13.6-5.1-13.6 -3.1 0-7.1 5.2-11.1 13.3 -6.6 13.3-9.7 25.8-17.4 39.3 -5.4-11.6-12-17.9-19.2-17.9 -5.9 0-12.2 4.1-18.7 12.9 -1.7-0.2-3.4-0.4-5-0.4 -12.3 0-21.6 7.1-36.6 20 1.8-17.3 12.5-30.8-1.3-42 17.6-21.4 10.8-36.2-7-36.2 -3.5 0-7.5 0.6-11.8 1.8 4.3-15.9 49.9-47.1 42.5-58.1 -2.9-3.6-9.8-5.4-20.7-5.4 -4.8 0-10.4 0.4-16.8 1.1 7-32.7-36.9-18.7-39.9-41.3 1.2 0.2 2.4 0.4 3.5 0.4 13.6 0 20.8-17.3 22.6-27.7 13.2-0.1 22.4-1.6 27.8-5.2 8.3-5.6 20.9-24.7 12.1-31.4 3.6-1.3 7-1.9 10.4-1.9 6.4 0 12.9 2 21.1 5 6.9 2.5 16.4 6.3 24.8 7.5 1.1 0.2 2.3 0.2 3.4 0.2 11 0 20.6-7.6 12.4-20C216.9 15.8 218.7 15.4 220.8 15.4M220.8 12.2c-2.6 0-4.9 0.5-7 1.5l-3.4 1.6 2.1 3.1c1.8 2.7 3.5 6.6 1.8 9.8 -1.7 3.1-6.2 5.1-11.5 5.1 -1 0-2-0.1-3-0.2 -6.8-1-14.6-3.8-20.8-6.1 -1.2-0.4-2.3-0.8-3.4-1.2 -7.9-2.8-15-5.2-22.2-5.2 -3.9 0-7.7 0.7-11.5 2.1l-5.6 2 4.8 3.6c0.8 0.6 1.8 1.7 1.7 4.3 -0.2 6.8-7.8 17.9-13.7 21.9 -4.6 3.1-12.9 4.6-26 4.7l-2.7 0 -0.5 2.7c-1.8 10-8.4 25-19.4 25 -0.9 0-1.9-0.1-2.8-0.3l-4.5-0.9 0.6 4.5c1.6 12 12.6 15.4 22.2 18.3 5.5 1.7 11.2 3.4 14.7 6.6 2.3 2.1 5.1 5.9 3.1 15.2l-0.9 4.4 4.5-0.5c6.2-0.7 11.8-1 16.4-1 12.5 0 16.7 2.5 18 4.1 0.3 0.7 0.7 3-4.1 9.3 -4 5.3-10.3 11.6-16.3 17.6 -10.5 10.6-20.5 20.6-22.6 28.4l-1.5 5.6 5.5-1.6c3.9-1.1 7.6-1.7 10.9-1.7 6.6 0 11.3 2.2 13.1 6.1 1.3 2.7 3 10.6-8.6 24.7l-2.1 2.5 2.6 2.1c7.7 6.2 6.4 12.6 3.2 24.2 -1.2 4.5-2.6 9.5-3.2 14.9l-0.8 8.2 6.2-5.4c15.1-13 23.4-19.2 34.5-19.2 1.5 0 3 0.1 4.5 0.3l1.9 0.3 1.2-1.6c5.6-7.6 11.1-11.6 16.1-11.6 4.1 0 10.2 2.8 16.3 16l2.7 5.8 3.1-5.5c4.5-7.9 7.5-15.5 10.3-22.8 2.1-5.4 4.3-11 7.1-16.7 4.1-8.2 7-10.9 8-11.4 0.4 0.6 1.7 2.9 2 10.4 0.2 4.7 2.1 9.3 4 14.3 0.3 0.8 0.6 1.6 1 2.5l1.6 4 3.4-2.6c2.2-1.6 4.1-2.5 5.8-2.5 4.5 0 8.5 6.8 12.6 13.9 5.5 9.4 11.7 20 22.6 22.7l5.7 1.4 -1.8-5.6c-5.4-16.6-1.8-22.4 13.3-33.9l1.4-1 -0.1-1.7c-0.7-13.8 1.7-22.7 7.2-26.5 1.7-0.5 3.6-0.8 5.5-0.8 5.3 0 11.6 1.9 18.9 5.7l5.7 2.9 -1-6.3c-2.6-17.3-12-44.5-19.3-55.9 -1-1.6-2.4-3.2-3.8-4.9 -1.8-2.1-3.6-4.2-4.4-6.1 -0.8-1.7-0.3-2.2 0.1-2.7 0 0 0.7-0.6 3.4-0.6 2.7 0 5.8 0.6 7.6 0.9 1.2 0.2 1.8 0.3 2.3 0.3l7.2 0.2 -4.6-5.5c-3.8-4.6-6.3-8.9-8.7-13 -4.9-8.6-9.6-16.7-24.8-24.8 -5.9-3.2-12.7-4.8-20.2-4.8 -2.2 0-4.4 0.1-6.8 0.4 8.1-14 8.1-28.2-0.4-39.8l-2.2-3 -2.7 2.5c-0.8 0.8-2.4 1.3-4.1 1.3 -2.9 0-6.7-1.4-8.4-5.4C249.4 22.5 232.4 12.2 220.8 12.2L220.8 12.2z" fill="#010101"/>
    </g>
    <g>
      <path d="M266.5 92.5c-6.9-7.6-13.6-17.2-19.6-25.1 4.3 3.8 8.5 5.2 20.4 20.5C269.6 91 269.6 95.9 266.5 92.5L266.5 92.5z" style="clip-rule:evenodd;fill-rule:evenodd;fill:#010101"/>
      <path d="M221.6 88.5c-13.4-9.5-32-25.4-38.7-31.7 20.2 12.3 23.9 15.4 42.4 31.6C226.7 89.5 221.6 88.5 221.6 88.5L221.6 88.5z" style="clip-rule:evenodd;fill-rule:evenodd;fill:#010101"/>
      <path d="M142.1 173.9c17.7-10.7 49-23.9 64.6-24.3 1.9-0.1 1.2 2.6-0.9 3.1C179.5 158.9 154.9 168.2 142.1 173.9L142.1 173.9z" style="clip-rule:evenodd;fill-rule:evenodd;fill:#010101"/>
      <path d="M186.6 87.7c-13.8 9.1-31.1 19.9-36.5 23.7 17.5-8.2 35.3-17.2 41.7-23.4C192.6 87.2 189.5 85.8 186.6 87.7L186.6 87.7z" style="clip-rule:evenodd;fill-rule:evenodd;fill:#010101"/>
      <path d="M253.4 196.5c3.8-14 13.4-38.4 18.9-44.3 1.5-1.5 1.7 4.5-0.6 8.3C263.7 173.9 257.9 187.5 253.4 196.5L253.4 196.5z" style="clip-rule:evenodd;fill-rule:evenodd;fill:#010101"/>
      <path d="M306.3 169.3c-9.4-13.9-27.1-32.3-34.6-37.7 -2-1.4-4.7 0.4-0.7 4.1C277.4 141.5 295.1 156.9 306.3 169.3L306.3 169.3z" style="clip-rule:evenodd;fill-rule:evenodd;fill:#010101"/>
      <path d="M268.7 88.9c-76.2-2.7-138.3-6.1-154.5-3.5 37.3 1.8 107.9 6.6 151.7 7.4C268.2 92.8 272 89 268.7 88.9L268.7 88.9z" style="clip-rule:evenodd;fill-rule:evenodd;fill:#010101"/>
      <path d="M212 209.7c-3.7-20.3 0.5-51.1 2.9-63.1 0.4-2.2 4.4-8.6 3.7-0.8C217.5 157.3 212 183.8 212 209.7L212 209.7z" style="clip-rule:evenodd;fill-rule:evenodd;fill:#010101"/>
      <path d="M280.9 231.3c-7.7-60.1-16.3-113.5-17.7-132.8 -0.3-4.5 3.3-8.1 4-2.9C275 153.2 281.5 212 280.9 231.3L280.9 231.3z" style="clip-rule:evenodd;fill-rule:evenodd;fill:#010101"/>
      <path d="M331.7 57.7c-26.9 12.9-60.8 33-82.5 53.8 -43.3 41.4-75.8 81.7-101.4 122.5 24.3-43.6 54-82.8 98.5-125.9 13.6-13.2 54.3-46.5 75.9-59.3 7.7-4.6 7.8-0.9 9.4 0.8C333.1 51.3 339.4 54 331.7 57.7L331.7 57.7z" style="clip-rule:evenodd;fill-rule:evenodd;fill:#010101"/>
      <path d="M228.4 89.9c-9.4 8.2-16.1 14.9-24.3 23.2 5.8-4.1 11.2-5.8 27.4-22.2C234.8 87.7 232.6 86.2 228.4 89.9L228.4 89.9z" style="clip-rule:evenodd;fill-rule:evenodd;fill:#010101"/>
      <path d="M211 176.9c-4.8 7.1-10.1 17.2-13.8 24.2 4.7-7.2 10.6-14.8 14.8-19.9C214 178.8 213.2 173.7 211 176.9L211 176.9z" style="clip-rule:evenodd;fill-rule:evenodd;fill:#010101"/>
      <path d="M194.6 151.3c-7.2-4.6-16.9-8.5-23.9-12.1 3.9 3.3 10.3 8.3 24.1 15.3C197.6 155.9 197.8 153.3 194.6 151.3L194.6 151.3z" style="clip-rule:evenodd;fill-rule:evenodd;fill:#010101"/>
    </g>
  </g>

  <g class="p_leaf">
    <path d="M-19.7 445.7c3.4 6.8 20.7 19.1 28.8 10.1 8.4 5.9 21.7 2.5 23.2-2.7 20.1-4.1 11.1-11.9 14.1-13.6 3.2-1.8 5.8-5 7.4-8.5 1.3-2.8-0.8-3.8-0.8-9.5 0-4.2 7.8-10.7 6.6-14.4 -0.7-2.2-5-5.2-4.9-10.8 0-6.2 3.4-9.5 2.6-13.3 -1.5-7-6.8-6.4-9.4-12.5 -2.3-5.3 0.2-7.1-1.6-13.7C45 352.7 33 346.9 31 333.5c-12.3 11.3-18 4.5-23.7 6.4 -2.7 0.9-4.8 5.2-8.5 6.3 -3.8 1.1-7.1-1.7-12.1 0.3 -5.8 2.2-4.3 6.6-7.8 8.9 -4.5 3-11.2-2.4-17.3 7.8 -3.3 5.6-2.5 8.6-10.1 10 -3.9 0.7-5.5 4.5-6.2 8.6 -0.9 5.4 0.8 12.2 0.9 15.4 -7.2 2.2-4.1 16.8 7.9 27.9C-51 432.6-31.9 446.4-19.7 445.7L-19.7 445.7z" style="clip-rule:evenodd;fill-rule:evenodd;fill:#F4CD2A"/>
    <g>
      <path d="M17.6 371.9c5.1-2.4 12-6.5 16.6-9.9 -1.9 3.6-10.7 10.2-17.5 12.8C13.5 376 16.8 372.2 17.6 371.9L17.6 371.9z" style="clip-rule:evenodd;fill-rule:evenodd;fill:#29F4A2"/>
      <path d="M13.7 376.1c-4-6.2-5.8-19.2-5.5-23 1.2 4.9 4 14.7 6.7 19C16.7 374.7 15 378.1 13.7 376.1L13.7 376.1z" style="clip-rule:evenodd;fill-rule:evenodd;fill:#29F4A2"/>
      <path d="M-3.6 412.4c-6.8-13.7-9.5-29.9-7.6-45.4 1.2 17.1 5.1 31 9.5 42.8C-1.2 410.9-1.7 416.2-3.6 412.4L-3.6 412.4z" style="clip-rule:evenodd;fill-rule:evenodd;fill:#29F4A2"/>
      <path d="M-33.3 379.4c-1.9 22.8 3.8 43.1 15.4 58.2 1.2 1.6 2.7-1.5 2.6-1.7C-24.6 424.1-32.4 404.1-33.3 379.4L-33.3 379.4z" style="clip-rule:evenodd;fill-rule:evenodd;fill:#29F4A2"/>
      <path d="M-0.7 408c14.8-4.9 28.4-11.7 40.4-18.5 -7.1 6.3-23.2 17.1-41.3 21.7C-3.1 411.6-1.9 408.4-0.7 408L-0.7 408z" style="clip-rule:evenodd;fill-rule:evenodd;fill:#29F4A2"/>
      <path d="M-38.6 464.5c5-5.8 10.6-12.9 12.7-16 11-16.3 21.4-34.4 28.6-49.5 12-25 16.4-35.2 25.3-55.9 -5.8 18-11.9 37.2-21.4 57 -5.9 12.4-15.8 32.8-26.9 50.1 -3.6 5.6-9.4 15.6-13.2 20.2C-33.8 470.8-43.5 470.2-38.6 464.5L-38.6 464.5z" style="clip-rule:evenodd;fill-rule:evenodd;fill:#29F4A2"/>
      <path d="M-15.8 441.5c18.4-3.5 42.1-11.7 53.1-21.6 -13.9 8-36.2 15.4-51.5 18.1C-17.8 438.7-20.2 442.4-15.8 441.5L-15.8 441.5z" style="clip-rule:evenodd;fill-rule:evenodd;fill:#29F4A2"/>
    </g>
  </g>

  <g class="p_leaf">
    <path d="M455.9 24.7c-2.6-7.3-18.5-22-27.8-14 -7.7-7.1-21.6-5.3-23.9-0.3 -20.9 1.6-12.8 10.7-16 12 -3.5 1.5-6.6 4.4-8.6 7.7 -1.7 2.7 0.3 3.9-0.4 9.7 -0.5 4.2-9.3 9.8-8.5 13.7 0.5 2.3 4.4 5.9 3.6 11.6 -0.8 6.3-4.7 9.2-4.4 13.1 0.6 7.3 6.1 7.4 7.9 13.9 1.6 5.7-1.1 7.2-0.1 14.1 0.7 4.3 12.1 11.8 12.5 25.6 13.9-9.8 18.8-2.3 24.8-3.4 2.9-0.5 5.5-4.7 9.4-5.3 4-0.6 7 2.6 12.3 1.3 6.1-1.5 5.2-6.2 9-8.1 5-2.4 11.1 3.9 18.5-5.7 4.1-5.2 3.7-8.4 11.5-8.8 4.1-0.2 6.1-3.8 7.3-7.9 1.6-5.4 0.8-12.4 1.1-15.7 7.6-1.3 6.3-16.5-4.4-29.3C486 42 468.4 25.6 455.9 24.7L455.9 24.7z" style="clip-rule:evenodd;fill-rule:evenodd;fill:#FFF"/>
    <g>
      <path d="M408.7 94.7c-5.5 1.8-13 5.1-18.1 7.9 2.4-3.4 12.2-9 19.4-10.8C413.3 91 409.5 94.4 408.7 94.7L408.7 94.7z" style="clip-rule:evenodd;fill-rule:evenodd;fill:#F4CD2A"/>
      <path d="M413.1 91c3.3 6.8 3.4 20.3 2.6 24 -0.6-5.2-2.1-15.4-4.4-20.1C410 91.9 412 88.7 413.1 91L413.1 91z" style="clip-rule:evenodd;fill-rule:evenodd;fill:#F4CD2A"/>
      <path d="M435.3 56.4c5.1 14.7 5.8 31.5 1.9 47 1-17.5-1.2-32.1-4.1-44.6C432.7 57.5 433.9 52.3 435.3 56.4L435.3 56.4z" style="clip-rule:evenodd;fill-rule:evenodd;fill:#F4CD2A"/>
      <path d="M461.2 93.7c4.9-22.9 1.7-44.1-8.2-60.9 -1-1.7-2.9 1.2-2.8 1.3C458.2 47.2 463.4 68.5 461.2 93.7L461.2 93.7z" style="clip-rule:evenodd;fill-rule:evenodd;fill:#F4CD2A"/>
      <path d="M431.8 60.5c-15.7 3-30.3 8.2-43.3 13.6 8-5.5 25.8-14.4 44.6-16.7C434.8 57.1 433.1 60.2 431.8 60.5L431.8 60.5z" style="clip-rule:evenodd;fill-rule:evenodd;fill:#F4CD2A"/>
      <path d="M477.5 8.1c-5.8 5.3-12.4 11.7-14.9 14.6 -13.2 15.1-26.1 32.2-35.4 46.5 -15.4 23.8-21.1 33.6-32.9 53.4 8.2-17.5 16.8-36.1 29-55 7.6-11.8 20.3-31.2 33.7-47.3 4.4-5.2 11.5-14.6 16-18.8C473.5 1 483.3 2.9 477.5 8.1L477.5 8.1z" style="clip-rule:evenodd;fill-rule:evenodd;fill:#F4CD2A"/>
      <path d="M451.4 28.4c-19.1 1.1-44.2 6.4-56.7 15.1 15.2-6.3 38.6-11 54.5-11.7C453.1 31.6 456 28.1 451.4 28.4L451.4 28.4z" style="clip-rule:evenodd;fill-rule:evenodd;fill:#F4CD2A"/>
    </g>
  </g>

  <g class="p_leaf">
    <path d="M92.5 698.3c-2.2 0-3.3-1.6-4.1-2.9 -0.2-0.2-0.3-0.5-0.5-0.8 -1.7-2.5-4.5-5.4-8.1-8.5 -4.1 3.1-10.4 4.9-17.5 4.9 -6.9 0-12.5-1.8-15-4.7 -1.3-1.5-1.8-3.2-1.5-5.1 0.1-0.6 0.3-1.2 0.4-1.7 -0.9 0.3-2.1 0.7-3.7 1.4 -1.6 0.7-3.4 1.5-5.2 2.3 -5.8 2.7-12.3 5.7-18 5.7 -4 0-7.2-1.5-9.5-4.3 -3-3.7-2.8-9.5 0.6-13.7 0.1-0.1 0.1-0.2 0.2-0.3 -0.1 0-0.3 0-0.4 0.1 -3.7 0.5-7.7 1.7-12 3 -6.3 1.9-12.9 3.8-19.2 3.8 -5.1 0-9.4-1.3-13-3.8 -2.7-1.9-4.3-4.4-4.8-7.4 -0.5-3 0.4-6.2 2.3-8.8 0 0 0.3-0.4 0.3-0.4 -2.6 0.3-5.1 0.4-7.4 0.4 -7.7 0-20.8-1.7-22-13.2 -0.5-4.5 1.2-9.6 3.3-12.8 -8.9-3-11.7-10.2-11.2-16.5 0.7-8.7 7.8-18 17.4-18 2.2 0 4.3 0.5 6.4 1.4 1.5-6.6 6.6-10.6 13.9-10.6 5 0 10.7 1.9 16.5 5.4 2.2-8.7 7-10.6 10.8-10.6 8.3 0 17.9 9.3 23.2 16.6 0-0.1 0.1-0.2 0.1-0.2 3-6.2 7.1-7.1 9.4-7.1 1 0 2.1 0.2 3.1 0.5 7.7 2.6 14.7 14.5 17 29.2 0.2-0.2 0.4-0.5 0.6-0.7 2.6-2.7 4.8-4 7.2-4 1.2 0 2.5 0.4 3.7 1.2 5.9 3.7 7.7 18.2 6.8 23.3 -0.2 1.3-0.1 2.4 0.4 3 0.4 0.5 0.9 0.5 1.1 0.5 0.2 0 0.4-0.1 0.4-0.1 1.3-0.9 2.7-1.3 4-1.3 7 0 9.9 11.6 11.3 17.2 0.1 0.5 0.2 0.9 0.3 1.2 2 7.3 3.1 12.4 3.4 15.7 4.1 2.9 9.6 7 14 11.2 2.5 2.4 2.2 4.9 1.1 6.5 -1.3 1.9-3.8 2.8-5.6 3.1C92.9 698.3 92.7 698.3 92.5 698.3z" style="clip-rule:evenodd;fill-rule:evenodd;fill:#29F4A2"/>
    <path d="M-8.4 584.9c7.6 0 17.6 9.9 22.6 17.4 0.6 1 1 1.4 1.3 1.4 0.6 0 0.6-1.8 1.5-3.7 1.9-4 4.5-5.8 7.3-5.8 0.8 0 1.6 0.1 2.4 0.4 6.5 2.2 13.4 12.9 15.6 28.1 0.3 2.3 0.6 3.1 1.1 3.1 0.6 0 1.6-1.5 3.4-3.4 2.3-2.4 4-3.3 5.5-3.3 0.9 0 1.7 0.3 2.5 0.8 4.6 2.9 6.7 15.9 5.8 21 -0.7 4.4 1.7 6.1 3.8 6.1 0.6 0 1.2-0.2 1.7-0.5 1-0.7 1.9-1 2.8-1 5.8 0 8.5 13.4 9.4 16.7 1.8 6.4 3.3 12.7 3.4 16.3 5.2 3.7 10.6 7.8 14.6 11.6 1.4 1.3 1.4 2.6 0.8 3.6 -0.8 1.1-2.5 1.9-4 2.1 -0.1 0-0.2 0-0.3 0 -1.2 0-1.7-1.1-2.7-2.7 -2.3-3.3-6-6.9-10-10.2 -3.7 3.8-10.9 5.6-17.5 5.6 -7.9 0-14.9-2.5-14.2-7.2 0.4-2.5 2.4-4.9 0.4-4.9 -1 0-3 0.6-6.8 2.2 -6.7 2.7-15.4 7.8-22.4 7.8 -3 0-5.7-1-7.7-3.5 -2.4-3-2-7.5 0.6-10.8 2.5-3 2.3-4.1-0.1-4.1 -0.6 0-1.3 0.1-2.2 0.2 -9.5 1.4-20.7 6.7-30.9 6.7 -4.2 0-8.2-0.9-11.7-3.4 -5-3.5-4.8-9.1-2-12.9 1.4-1.8 3.4-4.2 0.4-4.2 -0.3 0-0.6 0-0.9 0.1 -3.1 0.3-5.9 0.5-8.4 0.5 -30.8 0-17.1-24.5-14.4-25.1C-80 626.6-71 599.3-56 599.3c2.6 0 5.4 0.8 8.2 2.7 0.3-7.6 4.9-12 12-12 5 0 11.3 2.2 18.1 6.9C-16.3 588.2-12.7 584.9-8.4 584.9M-8.4 580.3c-6.7 0-10.2 4.7-12.1 9.5 -5.4-2.9-10.6-4.4-15.2-4.4 0 0 0 0 0 0 -7.4 0-13 3.7-15.3 9.9 -1.6-0.5-3.3-0.7-4.9-0.7 -5.1 0-10 2.3-13.7 6.5 -3.4 3.7-5.5 8.7-5.9 13.6 -0.4 4.7 0.8 9.1 3.5 12.6 1.7 2.2 4 4 6.7 5.3 -1.7 3.6-2.7 8.1-2.4 11.9 0.6 5.7 4.5 15.2 24.2 15.2 1.1 0 2.2 0 3.3-0.1 -0.8 2.2-1.1 4.6-0.8 6.9 0.6 3.6 2.6 6.6 5.7 8.9 4.1 2.9 8.8 4.2 14.4 4.2 6.6 0 13.3-2 19.8-3.9 2.6-0.8 5-1.5 7.4-2 -1.5 4.2-0.9 8.9 1.8 12.2 2.7 3.4 6.6 5.2 11.3 5.2 6.2 0 13-3.1 19-5.9 1.8-0.8 3.6-1.6 5.1-2.3 0 0 0 0 0.1 0 0.2 1.7 0.9 3.4 2.1 4.8 4.2 5 13.1 5.5 16.7 5.5 6.8 0 12.9-1.6 17.3-4.3 2.8 2.5 5 4.9 6.4 6.9 0.2 0.3 0.3 0.5 0.5 0.7 0.9 1.4 2.5 3.9 6 3.9 0.3 0 0.6 0 0.9-0.1 2.3-0.3 5.4-1.5 7.1-4 2.1-3 1.6-6.8-1.4-9.5 -4.2-3.9-9.3-7.9-13.4-10.8 -0.5-3.4-1.6-8.3-3.4-15 -0.1-0.3-0.2-0.7-0.3-1.2 -1.5-6.1-4.7-18.9-13.5-18.9 -1.3 0-2.5 0.3-3.8 0.9 0-0.1 0-0.2 0-0.3 0.9-5.4-0.8-21.1-7.9-25.6 -1.6-1-3.2-1.5-4.9-1.5 -2.5 0-4.6 1.1-6.3 2.4 -3-13.6-9.8-24.1-17.7-26.7 -1.3-0.4-2.6-0.6-3.8-0.6 -2.4 0-6.4 0.8-9.8 5.5C9 588.4 0.1 580.3-8.4 580.3L-8.4 580.3z" fill="#FFF"/>
  </g>
</svg>
